
<svg width="16px" height="12px" viewBox="0 0 16 12" version="1.1" xmlns="http://www.w3.org/2000/svg" xmlns:xlink="http://www.w3.org/1999/xlink">
    <g id="Page-2" stroke="none" stroke-width="1" fill="none" fill-rule="evenodd">
        <g id="Desktop-Home" transform="translate(-460.000000, -24.000000)" fill="#5C6AC4" fill-rule="nonzero">
            <g id="Header">
                <g id="Tab" transform="translate(425.000000, 0.000000)">
                    <g id="트레이딩" transform="translate(35.000000, 20.000000)">
                        <g id="chart-line-light" transform="translate(0.000000, 4.000000)">
                            <path d="M15.75,11 L1,11 L1,0.25 C1,0.111875 0.888125,0 0.75,0 L0.25,0 C0.111875,0 0,0.111875 0,0.25 L0,11.5 C0,11.77625 0.22375,12 0.5,12 L15.75,12 C15.888125,12 16,11.888125 16,11.75 L16,11.25 C16,11.111875 15.888125,11 15.75,11 Z M3.073125,6.2196875 C2.975625,6.3171875 2.975625,6.475625 3.073125,6.573125 L3.4265625,6.9265625 C3.5240625,7.0240625 3.6825,7.0240625 3.78,6.9265625 L6.0515625,4.67625 L8.698125,7.3228125 C8.8934375,7.518125 9.21,7.518125 9.4053125,7.3228125 L12.328125,4.4 L13.704375,5.77625 C13.8590625,5.9309375 14.0490625,6 14.235625,6 C14.625625,6 15,5.696875 15,5.239375 L15,1.5059375 C15,1.2265625 14.7734375,1 14.4940625,1 L10.760625,1 C10.084375,1 9.7459375,1.8175 10.2240625,2.295625 L11.62125,3.6928125 L9.051875,6.2621875 L6.4071875,3.6175 C6.2125,3.4228125 5.8971875,3.4221875 5.701875,3.6159375 L3.073125,6.2196875 Z M11.3425,2 L14,2 L14,4.6575 L11.3425,2 Z" id="Shape"></path>
                        </g>
                    </g>
                </g>
            </g>
        </g>
    </g>
</svg>