<svg xmlns="http://www.w3.org/2000/svg" xmlns:xlink="http://www.w3.org/1999/xlink" width="16" height="16" viewBox="0 0 16 16">
    <defs>
        <path id="a" d="M8 14a1 1 0 1 1 0 2c-4.411 0-8-3.589-8-8s3.589-8 8-8a1 1 0 1 1 0 2C4.691 2 2 4.691 2 8s2.691 6 6 6zm7.707-6.707a.999.999 0 0 1 0 1.414l-3 3a.997.997 0 0 1-1.414 0 .999.999 0 0 1 0-1.414L12.586 9H8a1 1 0 1 1 0-2h4.586l-1.293-1.293a.999.999 0 1 1 1.414-1.414l3 3z"/>
    </defs>
    <g fill="none" fill-rule="evenodd">
        <mask id="b" fill="#fff">
            <use xlink:href="#a"/>
        </mask>
        <use fill="#5c6ac4" xlink:href="#a"/>
    </g>
</svg>
