<svg xmlns="http://www.w3.org/2000/svg" xmlns:xlink="http://www.w3.org/1999/xlink" width="16" height="20" viewBox="0 0 16 20">
    <defs>
        <path id="a" d="M15.707 15.293a.999.999 0 0 1 .241 1.023l-1 3A.999.999 0 0 1 14 20H2a1 1 0 0 1-.949-.684l-1-3a.999.999 0 0 1 .242-1.023C.427 15.158 3.635 12 8 12c4.364 0 7.572 3.158 7.707 3.293zM13.28 18l.562-1.687c-.92-.752-3.155-2.313-5.84-2.313-2.704 0-4.928 1.558-5.844 2.31L2.72 18h10.56zM8 2c1.654 0 3 1.346 3 3S9.654 8 8 8 5 6.654 5 5s1.346-3 3-3zm0 8c2.757 0 5-2.243 5-5s-2.243-5-5-5-5 2.243-5 5 2.243 5 5 5"/>
    </defs>
    <g fill="none" fill-rule="evenodd">
        <mask id="b" fill="#fff">
            <use xlink:href="#a"/>
        </mask>
        <use fill="#5c6ac4" xlink:href="#a"/>
    </g>
</svg>
