
<svg width="18px" height="12px" viewBox="0 0 18 12" version="1.1" xmlns="http://www.w3.org/2000/svg" xmlns:xlink="http://www.w3.org/1999/xlink">
    <g id="Page-2" stroke="none" stroke-width="1" fill="none" fill-rule="evenodd">
        <g id="Desktop-Home" transform="translate(-759.000000, -24.000000)" fill="#5C6AC4" fill-rule="nonzero">
            <g id="Header">
                <g id="Tab" transform="translate(425.000000, 0.000000)">
                    <g id="고객센터" transform="translate(334.000000, 20.000000)">
                        <g id="user-friends-light" transform="translate(0.000000, 4.000000)">
                            <path d="M12.8571429,6 C14.2767857,6 15.4285714,4.84821429 15.4285714,3.42857143 C15.4285714,2.00892857 14.2767857,0.857142857 12.8571429,0.857142857 C11.4375,0.857142857 10.2857143,2.00892857 10.2857143,3.42857143 C10.2857143,4.84821429 11.4375,6 12.8571429,6 Z M12.8571429,1.71428571 C13.8026786,1.71428571 14.5714286,2.48303571 14.5714286,3.42857143 C14.5714286,4.37410714 13.8026786,5.14285714 12.8571429,5.14285714 C11.9116071,5.14285714 11.1428571,4.37410714 11.1428571,3.42857143 C11.1428571,2.48303571 11.9116071,1.71428571 12.8571429,1.71428571 Z M5.14285714,6 C6.80089286,6 8.14285714,4.65803571 8.14285714,3 C8.14285714,1.34196429 6.80089286,0 5.14285714,0 C3.48482143,0 2.14285714,1.34196429 2.14285714,3 C2.14285714,4.65803571 3.48482143,6 5.14285714,6 Z M5.14285714,0.857142857 C6.32410714,0.857142857 7.28571429,1.81875 7.28571429,3 C7.28571429,4.18125 6.32410714,5.14285714 5.14285714,5.14285714 C3.96160714,5.14285714 3,4.18125 3,3 C3,1.81875 3.96160714,0.857142857 5.14285714,0.857142857 Z M7.28839286,6.53571429 C6.39375,6.53571429 6.17142857,6.85714286 5.14285714,6.85714286 C4.11428571,6.85714286 3.89196429,6.53571429 2.99732143,6.53571429 C2.025,6.53571429 1.07946429,6.96964286 0.525,7.79196429 C0.192857143,8.28482143 0,8.87678571 0,9.51428571 L0,10.7142857 C0,11.4241071 0.575892857,12 1.28571429,12 L9,12 C9.70982143,12 10.2857143,11.4241071 10.2857143,10.7142857 L10.2857143,9.51428571 C10.2857143,8.87678571 10.0928571,8.28482143 9.76071429,7.79196429 C9.20625,6.96964286 8.26071429,6.53571429 7.28839286,6.53571429 Z M9.42857143,10.7142857 C9.42857143,10.95 9.23571429,11.1428571 9,11.1428571 L1.28571429,11.1428571 C1.05,11.1428571 0.857142857,10.95 0.857142857,10.7142857 L0.857142857,9.51428571 C0.857142857,9.06964286 0.988392857,8.63839286 1.23482143,8.27142857 C1.60446429,7.72232143 2.26339286,7.39285714 2.99464286,7.39285714 C3.72857143,7.39285714 3.99107143,7.71428571 5.14285714,7.71428571 C6.29464286,7.71428571 6.55714286,7.39285714 7.28839286,7.39285714 C8.01964286,7.39285714 8.67857143,7.72232143 9.04821429,8.27142857 C9.29464286,8.63839286 9.42589286,9.06964286 9.42589286,9.51428571 L9.42589286,10.7142857 L9.42857143,10.7142857 Z M16.70625,7.63660714 C16.2428571,6.95089286 15.4553571,6.58928571 14.6464286,6.58928571 C13.9017857,6.58928571 13.7142857,6.85714286 12.8571429,6.85714286 C12,6.85714286 11.8125,6.58928571 11.0678571,6.58928571 C10.7142857,6.58928571 10.36875,6.66964286 10.0473214,6.80625 C10.4544643,7.21875 10.5428571,7.43839286 10.5883929,7.51875 C10.7410714,7.47589286 10.8991071,7.44910714 11.0678571,7.44910714 C11.6517857,7.44910714 11.8714286,7.71696429 12.8571429,7.71696429 C13.8428571,7.71696429 14.0625,7.44910714 14.6464286,7.44910714 C15.2089286,7.44910714 15.7125,7.69821429 15.9964286,8.11875 C16.1866071,8.4 16.2883929,8.73214286 16.2883929,9.075 L16.2883929,10.0714286 C16.2883929,10.1892857 16.1919643,10.2857143 16.0741071,10.2857143 L11.1428571,10.2857143 C11.1428571,10.7598214 11.1508929,10.8883929 11.1,11.1428571 L16.0714286,11.1428571 C16.6633929,11.1428571 17.1428571,10.6633929 17.1428571,10.0714286 L17.1428571,9.07232143 C17.1428571,8.53928571 16.9821429,8.04642857 16.70625,7.63660714 Z" id="Shape"></path>
                        </g>
                    </g>
                </g>
            </g>
        </g>
    </g>
</svg>