
<svg width="16px" height="12px" viewBox="0 0 16 12" version="1.1" xmlns="http://www.w3.org/2000/svg" xmlns:xlink="http://www.w3.org/1999/xlink">
    <g id="Page-2" stroke="none" stroke-width="1" fill="none" fill-rule="evenodd">
        <g id="Desktop-Home" transform="translate(-625.000000, -24.000000)" fill="#5C6AC4" fill-rule="nonzero">
            <g id="Header">
                <g id="Tab" transform="translate(425.000000, 0.000000)">
                    <g id="자산" transform="translate(200.000000, 20.000000)">
                        <g id="won-sign-light" transform="translate(0.000000, 4.000000)">
                            <path d="M15.0734967,3.42093541 C15.2506102,3.42093541 15.3942094,3.2773363 15.3942094,3.10022272 L15.3942094,2.67260579 C15.3942094,2.4954922 15.2506102,2.3518931 15.0734967,2.3518931 L13.6352873,2.3518931 L14.0957773,0.41885078 C14.143804,0.217309577 13.9909844,0.0238129176 13.783804,0.0238129176 L13.3488374,0.0238129176 C13.1995543,0.0238077621 13.0700119,0.12681232 13.0363831,0.272258352 L12.5553942,2.3518931 L8.74198664,2.3518931 L8.23632962,0.268864143 C8.20141692,0.125053925 8.07263775,0.0238040319 7.92465033,0.0238129176 L7.42425835,0.0238129176 C7.27627429,0.0238137281 7.14750039,0.125059474 7.11257906,0.268864143 L6.60692205,2.3518931 L2.85049443,2.3518931 L2.38711804,0.274690423 C2.35440846,0.12807871 2.22431866,0.0238136054 2.07410245,0.0238129176 L1.63865479,0.0238129176 C1.43227617,0.0238129176 1.27961693,0.215919822 1.32622717,0.416953229 L1.77487751,2.3518931 L0.320712695,2.3518931 C0.143599109,2.3518931 0,2.4954922 0,2.67260579 L0,3.10022272 C0,3.2773363 0.143599109,3.42093541 0.320712695,3.42093541 L2.02276169,3.42093541 L2.36977283,4.91759465 L0.320712695,4.91759465 C0.143599109,4.91759465 0,5.06119376 0,5.23830735 L0,5.66592428 C0,5.84303786 0.143599109,5.98663697 0.320712695,5.98663697 L2.61763029,5.98663697 L3.94813363,11.7249889 C3.98183293,11.8703558 4.11133925,11.973274 4.26056125,11.9732739 L5.01696214,11.9732739 C5.16499777,11.9732739 5.29376392,11.8719822 5.32864143,11.7281158 L6.7206147,5.98663697 L8.62826726,5.98663697 L10.0202673,11.7281158 C10.055138,11.8719685 10.1839278,11.9732709 10.3319465,11.9732739 L11.0899243,11.9732739 C11.2384147,11.9732702 11.3674849,11.8713342 11.4018976,11.7268864 L12.7693898,5.98663697 L15.0734967,5.98663697 C15.2506102,5.98663697 15.3942094,5.84303786 15.3942094,5.66592428 L15.3942094,5.23830735 C15.3942094,5.06119376 15.2506102,4.91759465 15.0734967,4.91759465 L13.0240624,4.91759465 L13.3806147,3.42093541 L15.0734967,3.42093541 Z M7.65920713,1.77458352 L7.68967483,1.77458352 C7.68967483,1.77458352 7.7293363,2.01608018 7.79104677,2.3518931 L7.55783519,2.3518931 C7.59327276,2.1597494 7.62706465,1.96730582 7.65920713,1.77458352 Z M3.08897105,3.42093541 L6.3473853,3.42093541 L5.98404454,4.91759465 L3.42280624,4.91759465 L3.08897105,3.42093541 Z M4.91909131,9.30459688 C4.76685969,9.9165167 4.69074388,10.5794298 4.67551002,10.5794298 L4.64506904,10.5794298 C4.64506904,10.5794298 4.53851225,9.9165167 4.40151448,9.30459688 L3.6613363,5.98663697 L5.72456125,5.98663697 L4.91909131,9.30459688 Z M6.97980401,4.91759465 L7.30909577,3.55937639 C7.31991982,3.514049 7.33069042,3.46778619 7.34138085,3.42093541 L8.00755457,3.42093541 C8.01824499,3.46778619 8.02901559,3.514049 8.03983964,3.55937639 L8.36910468,4.91759465 L6.97980401,4.91759465 Z M10.9473942,9.30459688 C10.8103697,9.9165167 10.7038396,10.5794298 10.7038396,10.5794298 L10.6733719,10.5794298 C10.6581648,10.5794298 10.5820223,9.9165167 10.4298174,9.30459688 L9.62434744,5.98663697 L11.7147528,5.98663697 L10.9473942,9.30459688 Z M11.9620223,4.91759465 L9.36483742,4.91759465 L9.00149666,3.42093541 L12.3081514,3.42093541 L11.9620223,4.91759465 Z" id="Shape"></path>
                        </g>
                    </g>
                </g>
            </g>
        </g>
    </g>
</svg>