<svg xmlns="http://www.w3.org/2000/svg" xmlns:xlink="http://www.w3.org/1999/xlink" width="20" height="20" viewBox="0 0 20 20">
    <defs>
        <path id="a" d="M38.75 316.75c.691 0 1.25.56 1.25 1.25v3.75c0 .69-.559 1.25-1.25 1.25h-17.5a1.25 1.25 0 0 1-1.25-1.25V318a1.25 1.25 0 1 1 2.5 0v2.5h15V318c0-.69.559-1.25 1.25-1.25zm0-13.75c.691 0 1.25.56 1.25 1.25V308a1.25 1.25 0 1 1-2.5 0v-2.5h-15v2.5a1.25 1.25 0 1 1-2.5 0v-3.75c0-.69.559-1.25 1.25-1.25h17.5zm.693 8.96a1.252 1.252 0 0 1 0 2.08l-3.75 2.5a1.25 1.25 0 0 1-1.386-2.08l2.19-1.46-2.19-1.46a1.25 1.25 0 1 1 1.386-2.08l3.75 2.5zm-13.403-2.153a1.25 1.25 0 0 1-.346 1.733l-2.19 1.46 2.19 1.46c.575.383.73 1.16.346 1.733a1.249 1.249 0 0 1-1.734.347l-3.75-2.5a1.252 1.252 0 0 1 0-2.08l3.75-2.5a1.249 1.249 0 0 1 1.734.347zM28.75 318a1.251 1.251 0 0 1-1.185-1.647l2.5-7.5a1.25 1.25 0 0 1 2.37.791l-2.5 7.5a1.249 1.249 0 0 1-1.185.856z"/>
    </defs>
    <use fill="#212b36" fill-rule="evenodd" transform="translate(-20 -303)" xlink:href="#a"/>
</svg>
