<svg xmlns="http://www.w3.org/2000/svg" width="20" height="20" viewBox="0 0 20 20">
    <g fill="#5c6ac4" fill-rule="evenodd">
        <path d="M3.661 6.364l5.997-4.77c.416-.33.458-.905.095-1.283A1.07 1.07 0 0 0 8.342.225l-8 6.364c-.008.006-.011.016-.019.022a.897.897 0 0 0-.177.219c-.018.027-.045.049-.059.079a.819.819 0 0 0 0 .729c.014.03.041.052.059.08.05.079.104.154.177.217l.29.247H19c.553 0 1-.406 1-.909 0-.502-.447-.909-1-.909H3.661zM16.339 12.727l-5.997 4.77c-.416.331-.458.906-.095 1.283.366.38.997.416 1.411.086l8-6.363c.008-.007.011-.017.019-.023a.897.897 0 0 0 .177-.218c.018-.027.045-.05.059-.08a.819.819 0 0 0 0-.728c-.014-.03-.041-.052-.059-.08a.935.935 0 0 0-.177-.218l-.29-.247H1c-.553 0-1 .406-1 .91 0 .502.447.908 1 .908h15.339z"/>
    </g>
</svg>
