<svg xmlns="http://www.w3.org/2000/svg" xmlns:xlink="http://www.w3.org/1999/xlink" width="20" height="20" viewBox="0 0 20 20">
    <defs>
        <path id="a" d="M22 37v-4h3.382l.723 1.447c.17.339.516.553.895.553h6c.379 0 .725-.214.895-.553L34.618 33H38v4H22zm17-17a1 1 0 0 1 1 1v17a1 1 0 0 1-1 1H21a1 1 0 0 1-1-1V21a1 1 0 0 1 1-1h4a1 1 0 0 1 0 2h-3v9h4c.379 0 .725.214.895.553L27.618 33h4.764l.723-1.447c.17-.339.516-.553.895-.553h4v-9h-3a1 1 0 0 1 0-2h4zm-12.707 5.707a.999.999 0 1 1 1.414-1.414L29 25.586V20a1 1 0 0 1 2 0v5.586l1.293-1.293a.999.999 0 1 1 1.414 1.414l-3 3a.997.997 0 0 1-1.414 0l-3-3z"/>
    </defs>
    <use fill="#5c6ac4" fill-rule="evenodd" transform="translate(-20 -19)" xlink:href="#a"/>
</svg>
