<svg xmlns="http://www.w3.org/2000/svg" width="20" height="20" viewBox="0 0 20 20">
    <path fill="#5c6ac4" fill-rule="nonzero" d="M18.947 4.756V2.222C18.947 1 18 0 16.842 0H2.105C.937 0 0 1 0 2.222v15.556C0 19 .937 20 2.105 20h14.737c1.158 0 2.105-1 2.105-2.222v-2.534A2.247 2.247 0 0 0 20 13.334V6.666c0-.823-.432-1.523-1.053-1.911zm-1.052 1.91v6.667h-7.369V6.667h7.369zM2.105 17.779V2.222h14.737v2.222h-6.316c-1.158 0-2.105 1-2.105 2.223v6.666c0 1.223.947 2.223 2.105 2.223h6.316v2.222H2.105z"/>
</svg>
