<svg xmlns="http://www.w3.org/2000/svg" xmlns:xlink="http://www.w3.org/1999/xlink" width="37" height="37" viewBox="0 0 37 37">
    <defs>
        <path id="a" d="M34.884 14.029a1.827 1.827 0 0 0-1.731-1.239c-.072 0-7.285-.04-14.057-3.459a1.84 1.84 0 0 0-1.647 0C10.711 12.733 3.462 12.79 3.391 12.79a1.829 1.829 0 0 0-1.73 1.239c-2.499 7.366-2.173 14.298.94 20.047 3.011 5.557 8.698 9.873 15.217 11.546a1.83 1.83 0 0 0 .909 0c6.52-1.673 12.206-5.99 15.217-11.546 3.114-5.749 3.439-12.681.94-20.047m-12.42 8.432l-6.02 6.017-2.363-2.362a1.827 1.827 0 1 0-2.585 2.584l3.656 3.654a1.824 1.824 0 0 0 2.585 0l7.313-7.309a1.827 1.827 0 1 0-2.585-2.584m8.264 9.875c-2.465 4.55-7.097 8.12-12.455 9.626-5.36-1.505-9.993-5.076-12.457-9.626C3.362 27.806 3 22.314 4.747 16.39c2.487-.161 8.01-.812 13.527-3.395 5.515 2.583 11.038 3.234 13.524 3.395 1.75 5.924 1.386 11.417-1.07 15.946"/>
    </defs>
    <use fill="#FFF" fill-rule="evenodd" transform="translate(0 -9)" xlink:href="#a"/>
</svg>
