<svg xmlns="http://www.w3.org/2000/svg" xmlns:xlink="http://www.w3.org/1999/xlink" width="37" height="37" viewBox="0 0 37 37">
    <defs>
        <path id="a" d="M29.693 25.125a4.57 4.57 0 0 1 4.568 4.568 4.57 4.57 0 0 1-4.568 4.568 4.57 4.57 0 0 1-4.568-4.568 4.57 4.57 0 0 1 4.568-4.568zm-11.42 0a4.57 4.57 0 0 1-4.568-4.568 4.57 4.57 0 0 1 4.568-4.568 4.57 4.57 0 0 1 4.568 4.568 4.57 4.57 0 0 1-4.568 4.568zM31.977 9.136a4.57 4.57 0 0 1 4.568 4.569 4.57 4.57 0 0 1-4.568 4.568 4.57 4.57 0 0 1-4.568-4.568 4.57 4.57 0 0 1 4.568-4.569zm-6.852 31.978a2.283 2.283 0 1 1 0 4.568H11.42a2.28 2.28 0 0 1-.555-.069L1.73 43.33A2.284 2.284 0 0 1 0 41.114V34.26c0-.984.628-1.857 1.562-2.165l6.853-2.284c.217-.075.443-.103.671-.107.016-.003.032-.012.05-.012h6.853a2.283 2.283 0 1 1 0 4.568h-4.19c1.369 4.128 6.46 6.853 13.326 6.853z"/>
    </defs>
    <use fill="#FFF" fill-rule="evenodd" transform="translate(0 -9)" xlink:href="#a"/>
</svg>
