<svg width="20px" height="14px" viewBox="0 0 20 14" version="1.1" xmlns="http://www.w3.org/2000/svg" xmlns:xlink="http://www.w3.org/1999/xlink">
    <g id="Page-2" stroke="none" stroke-width="1" fill="none" fill-rule="evenodd">
        <g id="Desktop-Trade" transform="translate(-1437.000000, -1413.000000)" fill="#5C6AC4" fill-rule="nonzero">
            <g id="Footer" transform="translate(0.000000, 1400.000000)">
                <g id="wifi-solid" transform="translate(1437.000000, 13.000000)">
                    <path d="M19.8409375,3.84 C14.304375,-1.2809375 5.6934375,-1.2790625 0.1590625,3.84 C-0.0490625,4.0325 -0.053125,4.3584375 0.148125,4.558125 L1.218125,5.6196875 C1.41,5.8103125 1.71875,5.814375 1.918125,5.6315625 C6.478125,1.4540625 13.52125,1.453125 18.0821875,5.6315625 C18.2815625,5.814375 18.5903125,5.81 18.7821875,5.6196875 L19.8521875,4.558125 C20.053125,4.3584375 20.0490625,4.0325 19.8409375,3.84 Z M10,10 C8.8953125,10 8,10.8953125 8,12 C8,13.1046875 8.8953125,14 10,14 C11.1046875,14 12,13.1046875 12,12 C12,10.8953125 11.1046875,10 10,10 Z M16.3334375,7.3878125 C12.7315625,4.2025 7.264375,4.2059375 3.6665625,7.3878125 C3.4509375,7.5784375 3.4440625,7.909375 3.64875,8.11125 L4.725,9.1734375 C4.9125,9.3584375 5.214375,9.3709375 5.4140625,9.1984375 C8.0375,6.930625 11.9684375,6.935625 14.585625,9.1984375 C14.7853125,9.3709375 15.0871875,9.35875 15.2746875,9.1734375 L16.3509375,8.11125 C16.5559375,7.909375 16.54875,7.578125 16.3334375,7.3878125 Z" id="Shape"></path>
                </g>
            </g>
        </g>
    </g>
</svg>