<svg xmlns="http://www.w3.org/2000/svg" xmlns:xlink="http://www.w3.org/1999/xlink" width="20" height="20" viewBox="0 0 20 20">
    <defs>
        <path id="a" d="M11 16h3V8h-3v8zm-5 0h3V8H6v8zM8 6h4V4H8v2zm9 0h-3V4c0-1.103-.897-2-2-2H8c-1.103 0-2 .897-2 2v2H3a1 1 0 1 0 0 2h1v9a1 1 0 0 0 1 1h10a1 1 0 0 0 1-1V8h1a1 1 0 1 0 0-2z"/>
    </defs>
    <g fill="none" fill-rule="evenodd">
        <mask id="b" fill="#fff">
            <use xlink:href="#a"/>
        </mask>
        <use fill="#de3617" xlink:href="#a"/>
        <g fill="#de3617" mask="url(#b)">
            <path d="M0 0h21v21H0z"/>
        </g>
    </g>
</svg>
