
<svg width="20px" height="14px" viewBox="0 0 20 14" version="1.1" xmlns="http://www.w3.org/2000/svg" xmlns:xlink="http://www.w3.org/1999/xlink">
    <g id="Page-2" stroke="none" stroke-width="1" fill="none" fill-rule="evenodd">
        <g id="Desktop-Trade-&gt;-Transactions" transform="translate(-1425.000000, -1413.000000)" fill="#DF0000" fill-rule="nonzero">
            <g id="Footer" transform="translate(0.000000, 1400.000000)">
                <g id="wifi-slash-solid" transform="translate(1425.000000, 13.000000)">
                    <path d="M0.158814353,4.22647173 C-0.0489859594,4.3945809 -0.0530421217,4.67922027 0.147893916,4.85333333 L1.21622465,5.78011696 C1.40780031,5.94631579 1.71606864,5.95013645 1.91513261,5.79048733 C2.13322933,5.61582846 2.36162246,5.45699805 2.59063963,5.29898635 L0.563806552,3.92873294 C0.429641186,4.02998051 0.289547582,4.1208577 0.158814353,4.22647173 Z M14.8780031,9.19060429 L16.2951638,7.95680312 C16.4985959,7.78050682 16.4914197,7.49122807 16.2773791,7.32448343 C14.25117,5.74873294 11.6312012,5.06865497 9.09048362,5.27824561 L6.49578783,3.5242885 C10.425273,2.4774269 14.849922,3.22382066 18.0536661,5.79076023 C18.2527301,5.95040936 18.5609984,5.94658869 18.7525741,5.78038986 L19.8209048,4.85360624 C20.0218409,4.67922027 20.0174727,4.3945809 19.8099844,4.22674464 C15.4901716,0.731929825 9.30046802,-0.0207407407 4.16287051,1.94717349 L1.41872075,0.0919688109 C1.20093604,-0.0559454191 0.887051482,-0.0218323587 0.717940718,0.168654971 L0.105148206,0.8582846 C-0.0639625585,1.04849903 -0.0249609984,1.32276803 0.192823713,1.47095517 L18.55039,13.8807407 C18.7681747,14.0289279 19.0817473,13.9945419 19.25117,13.8040546 L19.8639626,13.114425 C20.0330733,12.9242105 19.9940718,12.6496686 19.7762871,12.5017544 L14.8780031,9.19060429 Z M3.69141966,7.32448343 C3.4773791,7.49095517 3.47051482,7.78023392 3.67363495,7.95680312 L4.74321373,8.88495127 C4.92948518,9.04678363 5.22964119,9.0574269 5.42776911,8.90678363 C5.84430577,8.59021442 6.30171607,8.34296296 6.77410296,8.12764133 L4.64118565,6.68588694 C4.31419657,6.88101365 3.99407176,7.08923977 3.69141966,7.32448343 Z M7.9875195,11.3528265 C7.9875195,12.3175439 8.88143526,13.0994152 9.98439938,13.0994152 C10.9800312,13.0994152 11.798752,12.4602729 11.949766,11.6262768 L9.18221529,9.75524366 C8.47956318,10.025692 7.9875195,10.6383626 7.9875195,11.3528265 Z" id="Shape"></path>
                </g>
            </g>
        </g>
    </g>
</svg>