
<svg width="66px" height="75px" viewBox="0 0 66 75" version="1.1" xmlns="http://www.w3.org/2000/svg" xmlns:xlink="http://www.w3.org/1999/xlink">
    <g id="Page-2" stroke="none" stroke-width="1" fill="none" fill-rule="evenodd">
        <g id="Desktop-Home" transform="translate(-251.000000, -1563.000000)" fill="#5C6AC4" fill-rule="nonzero">
            <g id="Feature" transform="translate(0.000000, 1450.000000)">
                <g transform="translate(251.000000, 81.000000)" id="calculator-light">
                    <g transform="translate(0.000000, 32.000000)">
                        <path d="M11.71875,65.625 L53.90625,65.625 C55.2011719,65.625 56.25,64.5761719 56.25,63.28125 L56.25,35.15625 C56.25,33.8613281 55.2011719,32.8125 53.90625,32.8125 L11.71875,32.8125 C10.4238281,32.8125 9.375,33.8613281 9.375,35.15625 L9.375,63.28125 C9.375,64.5761719 10.4238281,65.625 11.71875,65.625 Z M42.1875,51.5625 L42.1875,37.5 L51.5625,37.5 L51.5625,60.9375 L42.1875,60.9375 L42.1875,51.5625 Z M28.125,37.5 L37.5,37.5 L37.5,46.875 L28.125,46.875 L28.125,37.5 Z M28.125,51.5625 L37.5,51.5625 L37.5,60.9375 L28.125,60.9375 L28.125,51.5625 Z M14.0625,37.5 L23.4375,37.5 L23.4375,46.875 L14.0625,46.875 L14.0625,37.5 Z M14.0625,51.5625 L23.4375,51.5625 L23.4375,60.9375 L14.0625,60.9375 L14.0625,51.5625 Z M58.59375,0 L7.03125,0 C3.28125,0 0,3.28125 0,7.03125 L0,67.96875 C0,71.71875 3.28125,75 7.03125,75 L58.59375,75 C62.34375,75 65.625,71.71875 65.625,67.96875 L65.625,7.03125 C65.625,3.28125 62.34375,0 58.59375,0 Z M60.9375,67.96875 C60.9375,69.1303711 59.7553711,70.3125 58.59375,70.3125 L7.03125,70.3125 C5.86962891,70.3125 4.6875,69.1303711 4.6875,67.96875 L4.6875,28.125 L60.9375,28.125 L60.9375,67.96875 Z M60.9375,23.4375 L4.6875,23.4375 L4.6875,7.03125 C4.6875,5.86962891 5.86962891,4.6875 7.03125,4.6875 L58.59375,4.6875 C59.7553711,4.6875 60.9375,5.86962891 60.9375,7.03125 L60.9375,23.4375 Z" id="Shape"></path>
                    </g>
                </g>
            </g>
        </g>
    </g>
</svg>