
<svg width="83px" height="25px" viewBox="0 0 83 25" version="1.1" xmlns="http://www.w3.org/2000/svg" xmlns:xlink="http://www.w3.org/1999/xlink">
    <g id="Page-2" stroke="none" stroke-width="1" fill="none" fill-rule="evenodd">
        <g id="Desktop-Home" transform="translate(-20.000000, -18.000000)" fill="#5C6AC4">
            <g id="Header">
                <g id="Logo" transform="translate(20.000000, 18.000000)">
                    <path d="M79.5936869,5.3030303 L82.1684343,5.3030303 C82.4477273,5.3030303 82.6439394,5.57954545 82.5535354,5.84520202 L82.5421717,5.87853535 L76.2909091,24.2843434 L76.2136364,24.5118687 C76.1155518,24.8031524 75.8427076,24.9995068 75.5353535,25 L73.6169192,25 C73.2189394,25 72.9361111,24.6098485 73.0578283,24.2282828 L74.4883838,19.7338384 L69.7242424,5.87853535 L69.7204545,5.86717172 C69.6255051,5.59116162 69.8292929,5.3030303 70.119697,5.3030303 L72.9060606,5.3030303 C73.1830808,5.3030303 73.4277778,5.48434343 73.510101,5.75050505 L73.5494949,5.87853535 L75.6406566,12.3967172 C76.1361111,13.9406566 76.0681818,14.3747475 76.0681818,14.6414141 C76.0681818,14.3085859 78.8992424,5.87853535 78.8992424,5.87853535 L78.9964646,5.57373737 C79.047284,5.4128333 79.1964132,5.30333569 79.3651515,5.3030303 L79.5936869,5.3030303 Z M67.1262626,16.3421717 L68.1818182,16.3421717 C68.4608586,16.3421717 68.6868687,16.5707071 68.6868687,16.8525253 L68.6868687,18.9876263 C68.6881273,19.238568 68.4857895,19.4430535 68.2348485,19.4444444 L65.5267677,19.4444444 C63.359596,19.4444444 61.4156566,18.1742424 61.4156566,15.6934343 L61.4156566,8.39823232 L59.994697,8.39772727 L59.8143939,8.39823232 C59.688933,8.39789866 59.5687621,8.34765241 59.4804035,8.25858321 C59.392045,8.16951401 59.342763,8.04894441 59.3434343,7.92348485 L59.3434343,6.18358586 C59.3434343,6.05959596 59.4234848,5.80984848 59.7984848,5.6459596 C60.1734848,5.48181818 60.6252525,5.48712121 60.8691919,5.48712121 L61.4159091,5.48712121 L61.4159091,2.58989899 C61.4159091,2.27525253 61.6681818,2.02020202 61.9795455,2.02020202 L64.5979798,2.02020202 C64.8762626,2.02020202 65.1020202,2.24823232 65.1020202,2.52954545 L65.1020202,5.48712121 L67.8121212,5.48712121 C68.1176768,5.48712121 68.365404,5.73737374 68.365404,6.04621212 L68.365404,7.92373737 C68.365404,8.18636364 68.1545455,8.39949495 67.8944444,8.39949495 L67.8121212,8.39949495 C67.2363636,8.39949495 66.2174242,8.39949495 65.1020202,8.3989899 L65.1020202,14.7502525 C65.1020202,15.8535354 65.9469697,16.3421717 66.7025253,16.3421717 L67.1262626,16.3421717 Z M57.5757576,9.09393939 L57.5757576,18.9631313 C57.5757576,18.9631313 57.5825758,19.4444444 57.0994949,19.4444444 C56.6164141,19.4444444 54.5881313,19.4237374 54.4090909,19.4237374 C54.2300505,19.4237374 53.8123737,19.2641414 53.8123737,18.9631313 L53.8123737,9.30808081 C53.8123737,8.85555556 53.3123737,8.38080808 52.8800505,8.38080808 C52.4474747,8.38080808 51.5151515,8.29166667 50.3295455,8.8479798 C49.8510101,9.07272727 49.1527778,9.53838384 49.1527778,9.53838384 L49.1527778,18.9191919 C49.1541762,19.1924483 48.9338618,19.4151366 48.6606061,19.4166667 L45.9497475,19.4166667 C45.6750163,19.4151364 45.4534266,19.1913999 45.4545455,18.9166667 L45.4545455,5.76565657 C45.4545455,5.48914141 45.6765152,5.26515152 45.9497475,5.26515152 L48.5411616,5.26515152 C48.6724309,5.26581955 48.7980582,5.31860763 48.890406,5.41190261 C48.9827539,5.5051976 49.0342573,5.63135698 49.0335859,5.76262626 L49.0335859,6.55353535 C49.2492424,6.37954545 49.565404,6.15833333 50.0025253,5.93030303 C50.9621212,5.42979798 52.0414141,5.05050505 53.4292929,5.05050505 C54.8171717,5.05050505 55.8792929,5.41237374 56.7532828,6.29545455 C56.7532828,6.29545455 57.5757576,7.09545455 57.5757576,9.09393939 Z M39.1414141,15.4482323 C39.1414141,15.4482323 38.589899,15.9590909 37.6891414,16.3 C36.7878788,16.640404 36.3174242,16.6666667 35.6313131,16.6666667 C34.9454545,16.6666667 34.5957071,16.1818182 34.5957071,15.8863636 L34.5957071,14.7929293 C34.5957071,13.9805556 35.6580808,13.8888889 35.6580808,13.8888889 L39.1414141,13.8888889 L39.1414141,15.4482323 Z M41.2709596,5.81944444 C40.510101,5.27929293 39.4138889,5.05050505 38.529798,5.05050505 L36.2012626,5.05050505 C35.5237374,5.05050505 34.129798,5.12020202 32.9080808,5.98131313 C31.6866162,6.84242424 31.465404,8.38712121 31.465404,8.78863636 L31.465404,9.62575758 C31.4653371,9.8049564 31.5364766,9.97683864 31.6631656,10.103575 C31.7898546,10.2303114 31.9617103,10.3015152 32.1409091,10.3015152 L34.2396465,10.3015152 C34.439718,10.3015152 34.6315877,10.2220026 34.7730122,10.0804833 C34.9144367,9.93896404 34.9938209,9.74704114 34.9936869,9.5469697 L34.9936869,9.11085859 C34.9936869,8.83055556 35.0777778,8.54116162 35.3502525,8.26843434 C35.6229798,7.99570707 36.1123737,7.88156566 36.2719697,7.88156566 L37.7075758,7.88156566 C37.7075758,7.88156566 38.3482323,7.80959596 38.8055556,8.26742424 C39.2628788,8.72525253 39.1911616,9.10227273 39.1911616,9.10227273 L39.1911616,11.2239899 L34.9936869,11.2239899 C34.2613636,11.2239899 32.8777778,11.4613636 32.1333333,12.2068182 C31.3888889,12.9517677 31.0606061,13.7323232 31.0606061,14.6522727 L31.0606061,16.3340909 C31.0606061,16.8381313 31.1631313,17.7361111 32.0916667,18.664899 C33.019697,19.5941919 34.245202,19.6969697 34.5426768,19.6969697 L35.6590909,19.6969697 C36.2252525,19.6969697 37.0416667,19.4924242 37.8853535,19.0881313 C38.7287879,18.6840909 39.3340909,18.1260101 39.3340909,18.1260101 L39.3661616,18.0979798 L39.3661616,18.9919192 C39.3661616,19.2479798 39.5737374,19.4555556 39.829798,19.4555556 L42.4659091,19.4555556 C42.5888731,19.4554886 42.7067742,19.4065771 42.7936756,19.3195811 C42.8805769,19.232585 42.9293599,19.1146307 42.9292929,18.9916667 L42.9292929,8.42171717 C42.9292929,7.5010101 42.0315657,6.35959596 41.2709596,5.81969697 L41.2709596,5.81944444 Z M25.5467172,5.3030303 L28.2926768,5.3030303 C28.5661616,5.3030303 28.7878788,5.5260101 28.7878788,5.80126263 L28.7878788,19.0285354 C28.7878788,19.3037879 28.5661616,19.5267677 28.2929293,19.5267677 L25.6843434,19.5267677 C25.5533982,19.5263204 25.4281176,19.4733076 25.3366233,19.3796292 C25.245129,19.2859509 25.1950859,19.1594547 25.1977273,19.0285354 L25.2151515,18.1888889 C25.2151515,18.1888889 24.3323232,18.904798 23.2722222,19.3035354 C22.3358586,19.6560606 21.4267677,19.6969697 21.1229798,19.6969697 L19.6886364,19.6969697 C19.2921717,19.6969697 18.4138889,19.3792929 17.6982323,18.6585859 C16.9823232,17.9381313 16.6666667,16.6578283 16.6666667,15.9229798 L16.6666667,5.87272727 C16.66613,5.72212614 16.7254591,5.57748376 16.8315951,5.47063738 C16.937731,5.36379101 17.0819744,5.3034983 17.2325758,5.3030303 L19.9275253,5.3030303 C20.2010101,5.3030303 20.4224747,5.5260101 20.4224747,5.80126263 L20.4224747,15.0707071 C20.4224747,15.4462121 20.4780303,16.4664141 22.0055556,16.4664141 C23.5328283,16.4664141 25.0318182,15.3530303 25.0318182,15.0704545 L25.0318182,5.82121212 C25.0318182,5.53510101 25.2623737,5.3030303 25.5469697,5.3030303 L25.5467172,5.3030303 Z M9.84848485,14.5611111 C9.84848485,14.8222222 9.70126263,15.2994949 9.22121212,15.7828283 C8.74116162,16.2659091 7.99823232,16.4141414 7.6239899,16.4141414 L6.00833333,16.4141414 C5.71363636,16.4141414 4.9040404,16.2744949 4.41515152,15.7825758 C3.92676768,15.290404 3.78787879,14.8545455 3.78787879,14.5611111 L3.78787879,4.88409091 C3.78787879,4.75707071 3.81994949,4.14292929 4.35606061,3.60277778 C4.89318182,3.06237374 5.75252525,3.03030303 6.00858586,3.03030303 L7.62424242,3.03030303 C8.08560606,3.03030303 8.77045455,3.10732323 9.27146465,3.61161616 C9.7719697,4.11616162 9.84848485,4.60353535 9.84848485,4.88409091 L9.84848485,14.5611111 Z M13.8888889,15.105303 L13.8888889,4.47828283 C13.8888889,4.225 13.7939394,2.64469697 12.4527778,1.43232323 C11.1118687,0.21969697 9.50631313,0 8.73737374,0 L4.93459596,0 C4.50959596,0 2.85909091,0.198232323 1.41136364,1.40757576 C0.133838384,2.47449495 0,4.16414141 0,4.45757576 L0,15.105303 C0,15.105303 0,16.8755051 1.41085859,18.1098485 C2.82171717,19.3444444 4.54090909,19.5169192 4.9479798,19.5169192 L5.4780303,19.5169192 L10.7419192,24.3174242 C11.0076273,24.5594575 11.4157673,24.5530423 11.6737374,24.3027778 L13.0472222,22.9686869 C13.1828539,22.8371017 13.2571913,22.6547359 13.2522011,22.4658293 C13.247211,22.2769227 13.1633492,22.0987359 13.0209596,21.9744949 L9.95631313,19.2939394 C10.4323232,19.2141414 11.4825758,19.0606061 12.5133838,18.1449495 C13.5441919,17.229798 13.8888889,15.645202 13.8888889,15.105303 Z" id="Shape"></path>
                </g>
            </g>
        </g>
    </g>
</svg>