<svg xmlns="http://www.w3.org/2000/svg" width="327" height="99" viewBox="0 0 327 99" id="svg1">
    <path fill-rule="evenodd" fill="#FFFFFF"
          d="M315.19101,21 h10.196 c1.106,0 1.883,1.095 1.525,2.147 l-.045,.132 l-24.755,72.887 l-.306,.901 A2.839,2.839 0 0 1 299.119995,99 H291.52301 c-1.576,0 -2.696,-1.545 -2.214,-3.056 l5.665,-17.798 l-18.866,-54.867 l-.015,-.045 c-.376,-1.093 .431,-2.234 1.581,-2.234 h11.034 c1.097,0 2.066,.718 2.392,1.772 l.156,.507 l8.281,25.812 c1.962,6.114 1.693,7.833 1.693,8.889 c0,-1.318 11.211,-34.701 11.211,-34.701 l.385,-1.207 a1.534,1.534 0 0 1 1.46,-1.072 h.905 M265.820007,64.714996 H270 c1.105,0 2,.905 2,2.021 v8.455 A1.8,1.8 0 0 1 270.209991,77 h-10.724 c-8.582,0 -16.28,-5.03 -16.28,-14.854 V33.257 l-5.627,-.002 l-.714,.002 a1.87,1.87 0 0 1 -1.865,-1.88 v-6.89 c0,-.491 .317,-1.48 1.802,-2.129 c1.485,-.65 3.274,-.629 4.24,-.629 h2.165 V10.256001 c0,-1.246 .999,-2.256 2.232,-2.256 h10.369 c1.102,0 1.996,.903 1.996,2.017 v11.712 h10.732 c1.21,0 2.191,.991 2.191,2.214 v7.435 c0,1.04 -.835,1.884 -1.865,1.884 h-.326 c-2.28,0 -6.315,0 -10.732,-.002 v25.151 c0,4.369 3.346,6.304 6.338,6.304 h1.678 M228,36.012001 v39.082 S228.026978,77 226.114014,77 c-1.913,0 -9.945,-.082 -10.654,-.082 c-.709,0 -2.363,-.632 -2.363,-1.824 V36.860001 c0,-1.792 -1.98,-3.672 -3.692,-3.672 c-1.713,0 -5.405,-.353 -10.1,1.85 c-1.895,.89 -4.66,2.734 -4.66,2.734 V74.919998 a1.96,1.96 0 0 1 -1.949,1.97 h-10.735 A1.972,1.972 0 0 1 180,74.910004 V22.832001 c0,-1.095 .879,-1.982 1.961,-1.982 h10.262 a1.96,1.96 0 0 1 1.95,1.97 v3.132 c.854,-.689 2.106,-1.565 3.837,-2.468 c3.8,-1.982 8.074,-3.484 13.57,-3.484 s9.702,1.433 13.163,4.93 c0,0 3.257,3.168 3.257,11.082 m-73,25.163 s-2.184,2.023 -5.751,3.373 C145.679993,65.896004 143.817001,66 141.100006,66 c-2.716,0 -4.101,-1.92 -4.101,-3.09 v-4.33 c0,-3.217 4.207,-3.58 4.207,-3.58 H155 v6.175 m8.433,-38.13 C160.419998,20.905998 156.078995,20 152.578003,20 h-9.221 c-2.683,0 -8.203,.276 -13.041,3.686 c-4.837,3.41 -5.713,9.527 -5.713,11.117 v3.315 a2.675,2.675 0 0 0 2.675,2.676 h8.311 a2.986,2.986 0 0 0 2.986,-2.988 V36.078999 c0,-1.11 .333,-2.256 1.412,-3.336 c1.08,-1.08 3.018,-1.532 3.65,-1.532 h5.685 s2.537,-.285 4.348,1.528 s1.527,3.306 1.527,3.306 v8.402 h-16.622 c-2.9,0 -8.379,.94 -11.327,3.892 C124.300003,51.289001 123,54.379997 123,58.023003 v6.66 c0,1.996 .406,5.552 4.083,9.23 c3.675,3.68 8.528,4.087 9.706,4.087 h4.421 c2.242,0 5.475,-.81 8.816,-2.411 c3.34,-1.6 5.737,-3.81 5.737,-3.81 l.127,-.111 v3.54 c0,1.014 .822,1.836 1.836,1.836 H168.164993 A1.836,1.836 0 0 0 170,75.207001 V33.349998 c0,-3.646 -3.555,-8.166 -6.567,-10.304 M101.165009,21 h10.874 c1.083,0 1.961,.883 1.961,1.973 V75.352997 c0,1.09 -.878,1.973 -1.96,1.973 H101.709991 a1.934,1.934 0 0 1 -1.927,-1.973 l.069,-3.325 s-3.496,2.835 -7.694,4.414 c-3.708,1.396 -7.308,1.558 -8.511,1.558 h-5.68 c-1.57,0 -5.048,-1.258 -7.882,-4.112 C67.25,71.035004 66,65.964996 66,63.055 V23.256001 A2.248,2.248 0 0 1 68.240997,21 h10.672 c1.083,0 1.96,.883 1.96,1.973 V59.68 c0,1.487 .22,5.527 6.269,5.527 c6.048,0 11.984,-4.409 11.984,-5.528 V23.051998 c0,-1.133 .913,-2.052 2.04,-2.052 M39,57.662003 c0,1.034 -.583,2.924 -2.484,4.838 c-1.901,1.913 -4.843,2.5 -6.325,2.5 h-6.398 c-1.167,0 -4.373,-.553 -6.309,-2.501 C15.549999,60.550003 15,58.823997 15,57.662003 V19.341 c0,-.503 .127,-2.935 2.25,-5.074 C19.376999,12.126999 22.779999,12 23.793999,12 h6.398 c1.827,0 4.539,.305 6.523,2.302 C38.696999,16.299999 39,18.23 39,19.341 v38.321 m16,2.155 V17.734001 c0,-1.003 -.376,-7.261 -5.687,-12.062 C44.002998,0.869999 37.645004,0 34.599998,0 H19.541 c-1.683,0 -8.219,.785 -13.952,5.574 C0.529999,9.799 0,16.489998 0,17.652 v42.165 s0,7.01 5.587,11.898 c5.587,4.889 12.395,5.572 14.007,5.572 h2.099 l20.845,19.01 a2.694,2.694 0 0 0 3.69,-.058 l5.439,-5.283 a2.676,2.676 0 0 0 -.104,-3.937 L39.427002,76.403999 c1.885,-.316 6.044,-.924 10.126,-4.55 C53.635002,68.230003 55,61.955002 55,59.817001  z "></path>
</svg>