<svg xmlns="http://www.w3.org/2000/svg" xmlns:xlink="http://www.w3.org/1999/xlink" width="24" height="24" viewBox="0 0 24 24">
    <defs>
        <path id="a" d="M12 0C5.383 0 0 5.383 0 12c0 6.616 5.383 12 12 12s12-5.384 12-12c0-6.617-5.383-12-12-12m6.724 18.84C17.039 17.81 14.708 16.8 12 16.8c-2.707 0-5.039 1.01-6.725 2.04A9.567 9.567 0 0 1 2.4 12c0-5.293 4.307-9.6 9.6-9.6 5.293 0 9.6 4.307 9.6 9.6a9.563 9.563 0 0 1-2.876 6.84M7.379 20.41c1.283-.662 2.865-1.21 4.621-1.21 1.757 0 3.338.548 4.621 1.21A9.552 9.552 0 0 1 12 21.6a9.558 9.558 0 0 1-4.621-1.19M12 12a2.402 2.402 0 0 1-2.4-2.4c0-1.324 1.076-2.4 2.4-2.4 1.324 0 2.4 1.076 2.4 2.4 0 1.323-1.076 2.4-2.4 2.4m0-7.2a4.805 4.805 0 0 0-4.8 4.8c0 2.647 2.153 4.8 4.8 4.8s4.8-2.153 4.8-4.8-2.153-4.8-4.8-4.8"/>
    </defs>
    <g fill="none" fill-rule="evenodd">
        <mask id="b" fill="#fff">
            <use xlink:href="#a"/>
        </mask>
        <use fill="#31373D" xlink:href="#a"/>
        <g fill="#31373D" mask="url(#b)">
            <path d="M0 0h25v25H0z"/>
        </g>
    </g>
</svg>
