
<svg width="14px" height="14px" viewBox="0 0 14 14" version="1.1" xmlns="http://www.w3.org/2000/svg" xmlns:xlink="http://www.w3.org/1999/xlink">
    <g id="Page-2" stroke="none" stroke-width="1" fill="none" fill-rule="evenodd">
        <g id="Desktop-Home" transform="translate(-881.000000, -382.000000)" fill="#5F5F5F" fill-rule="nonzero">
            <g id="Market" transform="translate(5.000000, 360.000000)">
                <g id="Search" transform="translate(700.000000, 9.000000)">
                    <g id="search-light" transform="translate(176.000000, 13.000000)">
                        <path d="M13.877193,13.1430799 L10.3567251,9.62261209 C10.2939571,9.55984405 10.2120858,9.52709552 10.1247563,9.52709552 L9.84366472,9.52709552 C10.7797271,8.51461988 11.3528265,7.16374269 11.3528265,5.67641326 C11.3528265,2.54074074 8.81208577,0 5.67641326,0 C2.54074074,0 0,2.54074074 0,5.67641326 C0,8.81208577 2.54074074,11.3528265 5.67641326,11.3528265 C7.16374269,11.3528265 8.51461988,10.7797271 9.52709552,9.84639376 L9.52709552,10.1247563 C9.52709552,10.2120858 9.5625731,10.2939571 9.62261209,10.3567251 L13.1430799,13.877193 C13.271345,14.0054581 13.4787524,14.0054581 13.6070175,13.877193 L13.877193,13.6070175 C14.0054581,13.4787524 14.0054581,13.271345 13.877193,13.1430799 Z M5.67641326,10.4795322 C3.02105263,10.4795322 0.873294347,8.33177388 0.873294347,5.67641326 C0.873294347,3.02105263 3.02105263,0.873294347 5.67641326,0.873294347 C8.33177388,0.873294347 10.4795322,3.02105263 10.4795322,5.67641326 C10.4795322,8.33177388 8.33177388,10.4795322 5.67641326,10.4795322 Z" id="Shape"></path>
                    </g>
                </g>
            </g>
        </g>
    </g>
</svg>