<svg xmlns="http://www.w3.org/2000/svg" xmlns:xlink="http://www.w3.org/1999/xlink" width="16" height="16" viewBox="0 0 16 16">
    <defs>
        <path id="a" d="M15.593 9.518l-1.247-.704a6.24 6.24 0 0 0 0-1.628l1.247-.703a.8.8 0 0 0 .296-1.104l-1.637-2.772a.8.8 0 0 0-1.083-.29l-1.193.674a6.462 6.462 0 0 0-1.576-.922V.8a.8.8 0 0 0-.8-.8H6.4a.8.8 0 0 0-.8.8V2.07c-.564.23-1.097.54-1.576.922L2.83 2.318a.8.8 0 0 0-1.082.29L.111 5.377a.798.798 0 0 0 .296 1.105l1.247.703a6.241 6.241 0 0 0 0 1.628l-1.247.704a.799.799 0 0 0-.296 1.104l1.637 2.771a.799.799 0 0 0 1.082.29l1.194-.674c.479.382 1.012.693 1.576.922v1.27a.8.8 0 0 0 .8.8h3.2a.8.8 0 0 0 .8-.8v-1.27a6.412 6.412 0 0 0 1.576-.922l1.193.674a.8.8 0 0 0 1.083-.29l1.637-2.771a.802.802 0 0 0-.296-1.104M12.68 6.943c.08.358.12.714.12 1.057 0 .343-.04.699-.12 1.058a.798.798 0 0 0 .387.871l1.03.58-.824 1.394-1.002-.565a.8.8 0 0 0-.946.12 4.818 4.818 0 0 1-1.952 1.14.8.8 0 0 0-.572.767V14.4H7.2v-1.035a.8.8 0 0 0-.572-.767 4.808 4.808 0 0 1-1.952-1.14.8.8 0 0 0-.947-.12l-1.001.565-.824-1.393 1.03-.581a.799.799 0 0 0 .387-.871A4.835 4.835 0 0 1 3.2 8c0-.343.04-.699.121-1.057a.8.8 0 0 0-.388-.872l-1.03-.581.825-1.394 1.001.566a.8.8 0 0 0 .947-.12 4.81 4.81 0 0 1 1.952-1.14.8.8 0 0 0 .572-.767V1.6h1.6v1.035a.8.8 0 0 0 .572.767c.724.216 1.399.61 1.952 1.14a.8.8 0 0 0 .946.12l1.002-.566.824 1.394-1.03.58a.8.8 0 0 0-.387.873M7.999 4.8A3.203 3.203 0 0 0 4.8 8c0 1.765 1.436 3.2 3.2 3.2 1.766 0 3.2-1.435 3.2-3.2 0-1.765-1.434-3.2-3.2-3.2m0 4.8c-.881 0-1.6-.718-1.6-1.6 0-.882.719-1.6 1.6-1.6.883 0 1.6.718 1.6 1.6 0 .882-.717 1.6-1.6 1.6"/>
    </defs>
    <g fill="none" fill-rule="evenodd">
        <mask id="b" fill="#fff">
            <use xlink:href="#a"/>
        </mask>
        <use fill="#31373D" xlink:href="#a"/>
        <g fill="#919EAB" mask="url(#b)">
            <path d="M0 0h17v17H0z"/>
        </g>
    </g>
</svg>
