<svg xmlns="http://www.w3.org/2000/svg" width="24" height="24" viewBox="0 0 24 24">
    <g fill="none" fill-rule="nonzero">
        <path stroke="#5D6CC5" d="M21.406 12A9.403 9.403 0 1 1 2.6 12a9.403 9.403 0 0 1 18.805 0"/>
        <path fill="#5D6CC5" d="M15.007 10.383c.607-.576.869-1.339.458-2.348-.559-1.38-1.954-1.468-3.578-1.113l-.581-1.974-1.227.38.565 1.923c-.323.1-.65.208-.976.316l-.57-1.934-1.226.38.58 1.973c-.264.088-.523.174-.778.253l-.002-.006-1.693.524.378 1.283s.901-.298.891-.277c.497-.153.743.079.86.308l.663 2.25a.999.999 0 0 1 .133-.033l-.13.04.927 3.15c.024.16.003.434-.344.542.02.008-.893.276-.893.276l.179 1.51 1.597-.494c.297-.092.591-.178.878-.265l.589 1.997 1.226-.38-.582-1.976c.34-.097.666-.195.984-.294l.578 1.966 1.227-.38-.586-1.993c2.03-.756 3.323-1.712 2.945-3.665-.305-1.573-1.24-2.027-2.492-1.94zM10.112 8.97c.693-.215 2.806-1.106 3.223.31.4 1.358-1.823 1.874-2.517 2.088l-.706-2.398zm1.841 6.255l-.778-2.645c.832-.258 3.371-1.3 3.83.255.439 1.493-2.22 2.131-3.052 2.39z"/>
    </g>
</svg>
