<svg xmlns="http://www.w3.org/2000/svg" width="48" height="48" viewBox="0 0 48 48">
    <g fill="none" fill-rule="evenodd">
        <path fill="#FFF" fill-opacity="0" fill-rule="nonzero" d="M0 0h48v48H0z"/>
        <path fill="#5C6AC4" d="M16.457 10.399c-1.107-.159-2.22-.295-3.259-.743-.458-.198-.894-.45-1.39-.702.183-.198.308-.345.445-.48.348-.339.695-.678 1.055-1.005.16-.144.066-.254-.019-.364-.088-.112-.197-.204-.342-.067-.006.005-.01.012-.017.015-.1.048-.247.162-.292.13-.143-.099-.044-.245.013-.364.272-.572.772-.809 1.362-.877.387-.044.768.017 1.134.162.064.026.164.01.229-.022.409-.209.811-.43 1.218-.643.145-.076.147-.175.03-.262-.169-.127-.345-.252-.572-.09-.058.041-.154.03-.247.045-.008-.333.207-.481.418-.624.601-.407 1.703-.403 2.275.03.165.126.29.125.47.063.362-.124.734-.218 1.102-.326.062-.018.122-.045.19-.07-.18-.428-.485-.418-.822-.268-.095-.174-.002-.266.103-.345.4-.3.858-.355 1.338-.303.497.054.929.254 1.277.614.164.17.35.109.525.068.255-.06.49-.063.716.09.04.028.151.022.174-.009a.316.316 0 0 0 .06-.222c-.05-.243-.289-.427-.537-.436-.046-.002-.091-.004-.136-.01-.013 0-.023-.016-.06-.043.152-.198.363-.28.59-.315.683-.105 1.274.118 1.796.543.12.098.225.228.304.362.101.173.239.236.428.227.106-.005.213.005.319-.002.222-.013.422.017.56.22.02.032.077.038.116.056.14-.326-.114-.733-.44-.733-.045 0-.12-.03-.129-.06-.014-.049-.003-.142.03-.16.114-.066.239-.145.364-.153.906-.06 2.05.561 2.229 1.665.003.02.016.04.032.077.368-.043.677.077.93.356.04.044.157.07.2.044.058-.035.103-.13.107-.202.019-.333-.2-.61-.527-.696-.04-.01-.079-.03-.141-.054.15-.223.387-.184.56-.18.375.009.74.109 1.052.346.486.37.809.853.987 1.432.033.107.086.133.184.176.223.1.422.25.635.374.085.048.18.079.27.118.028-.111.087-.226.075-.333-.037-.315-.245-.52-.502-.685-.067-.043-.12-.108-.212-.19.376-.093.651.018.915.171.593.344.92.893 1.167 1.507.034.084.118.15.186.217.102.1.207.198.32.286.048.038.119.048.18.07.02-.06.07-.132.054-.181a5.954 5.954 0 0 0-.24-.597c-.052-.112-.128-.214-.194-.32l.045-.07c.127.04.266.06.38.124.402.228.702.567.952.95.218.335.417.682.639 1.014.19.286.253.595.295.932.067.529-.054 1.008-.222 1.496-.2.582-.177 1.192-.173 1.798.001.08-.04.185-.098.236-.363.32-.48.75-.564 1.2-.115.607-.106 1.213-.026 1.822.007.052-.042.139-.09.166-.539.309-.774.817-.876 1.387-.07.39-.063.795-.101 1.192-.007.065-.061.165-.113.18-.501.142-.836.482-1.055.926-.162.326-.27.68-.382 1.027-.06.182-.182.22-.379.231.045-.31.083-.59.127-.872.108-.683.133-1.37.032-2.052-.083-.563-.217-1.119-.329-1.677a.322.322 0 0 0-.026-.087c-.166-.317-.196-.567.1-.883.328-.35.444-.85.475-1.338.034-.513.048-1.028.045-1.542-.003-.497-.128-.964-.428-1.376-.258-.353-.891-.5-1.35-.317-.65.259-.938.858-.96 1.456-.007.223 0 .446 0 .733-.67-.656-1.389-1.114-2.161-1.483a7.507 7.507 0 0 0-2.42-.68c-.382-.042-.767-.096-1.148-.082-.736.026-1.467.12-2.166.37-.46.165-.908.362-1.366.532a.33.33 0 0 1-.26-.027c-.906-.61-1.908-1-2.958-1.257-.684-.167-1.387-.258-2.085-.357zm31.228 7.556c.23.173.371.566.28.853-.132-.104-.255-.209-.385-.304-.136-.1-.264-.118-.4.024-.144.151-.307.212-.527.1-.324-.165-.646-.121-.953.083-.193.128-.401.231-.64.367.583.114 1.056.34 1.344.838.167.289.32.586.459.89.142.313.01.58-.368.767-.004-.063-.003-.12-.01-.175-.028-.215-.15-.297-.36-.246-.268.064-.55-.06-.69-.354-.256-.537-.719-.817-1.226-1.052l-.445-.207c-.102.224-.209.462-.32.697-.02.039-.062.067-.095.098-.083.077-.241.16-.235.229.015.171.099.338.167.502.03.073.09.134.156.229-.372-.003-.663-.131-.86-.384a3.72 3.72 0 0 1-.439-.781c-.18-.407.015-.737.263-1.047.119-.148.224-.307.35-.48l-1.428-.39c.03.227.053.446.091.662.144.824.156 1.657.118 2.487a15.785 15.785 0 0 1-.566 3.57 14.82 14.82 0 0 1-.887 2.406c-.432.898-.89 1.782-1.49 2.58a21.736 21.736 0 0 1-1.317 1.603c-.447.49-.914.972-1.427 1.39-.617.502-1.278.953-1.945 1.388-.975.635-2.038 1.105-3.141 1.459-.762.244-1.552.402-2.336.57-.43.092-.874.123-1.312.184-.192.027-.503.307-.53.502-.1.698-.508 1.196-1.04 1.606-.237.183-.504.329-.76.487-.045.028-.104.035-.182.06.063-.177.125-.32.165-.468.064-.243-.019-.467-.232-.576-.084-.043-.203-.028-.304-.019-.056.005-.105.07-.162.078-.247.034-.278.217-.296.41-.058.621-.605 1.153-1.158 1.34-.01.003-.027-.01-.043-.017.046-.108.117-.212.13-.323.018-.136.023-.294-.033-.411-.079-.165-.21-.247-.42-.117-.34.208-.704.378-1.056.565-.032.017-.057.046-.103.084.248.11.494.2.72.323.438.238.81.55 1.014 1.022.106.245.145.485-.032.726-.042.057-.034.165-.021.246.082.515.104 1.024-.188 1.488-.095.151-.224.28-.366.415-.039-.522-.112-1.027-.343-1.501-.83.147-1.213-.417-1.612-1.023-.175.404-.528.541-.875.684-.574.238-1.028.598-1.244 1.204l-.377 1.06c-.026.07-.05.142-.077.212-.215.563-.554.72-1.167.504 0 .137-.012.261.003.382.016.122.059.24.093.372-.272-.057-.568-.375-.574-.616-.005-.171.027-.344.03-.516a.47.47 0 0 0-.046-.215c-.352-.693-.062-1.302.454-1.714.44-.352.846-.74 1.102-1.291-.715.162-1.388-.011-2.069-.071-.32-.029-.63.05-.846.327-.083.107-.158.22-.244.323-.252.302-.63.327-1.1.064-.241.395-.258.828-.214 1.277-.332-.17-.551-.96-.418-1.461-.208-.109-.26-.245-.188-.48.095-.308.326-.511.577-.672.955-.617 1.972-.962 3.121-.622.02.006.045 0 .089 0a1.318 1.318 0 0 0-.698-.764c-.415-.191-.848-.343-1.276-.504-.266-.1-.45-.255-.483-.56-.005-.05-.11-.117-.174-.125-.362-.046-.683.062-.974.32.192-.798.701-1.179 1.432-1.027.12.025.192.02.26-.085.149-.23.378-.292.628-.238.62.133 1.073.522 1.47.99.235.278.457.569.697.843.064.074.173.108.313.19-.069-.491-.12-.932-.195-1.37-.05-.29-.288-.41-.54-.486-.51-.154-.62-.504-.374-.987-.347-.33-.766-.348-1.21-.264.085-.229.471-.466.755-.488.357-.027.664.09.954.285.06.04.163.06.23.038.33-.109.74-.002.925.29.167.264.302.549.45.825.085.16.167.321.249.482l.38.757.965-2.62c-.338-.134-.699-.258-1.042-.419-.803-.377-1.607-.754-2.392-1.167-.517-.272-.996-.614-1.502-.909a2.009 2.009 0 0 0-.529-.19c-.183-.046-.338.14-.246.303.074.133.216.227.323.344.065.07.12.151.18.228-.082.033-.165.095-.248.095-.752-.001-1.214-.438-1.52-1.066a5.743 5.743 0 0 1-.532-1.92.23.23 0 0 0-.046-.12c-.428-.486-.857-.97-1.311-1.482-.033.3-.077.575.055.846.056.115.12.23.153.351.05.186-.07.291-.252.227-.313-.11-.479-.386-.583-.655-.184-.472-.321-.967-.431-1.463-.095-.43-.108-.878-.193-1.311-.048-.246-.178-.475-.256-.716-.12-.369-.226-.742-.343-1.13-.168.237-.06.464-.036.688 0 .008.008.014.01.021.032.156.146.368-.058.43-.092.029-.328-.153-.372-.282-.132-.386-.27-.792-.281-1.193-.037-1.292.25-2.536.68-3.748.032-.09.052-.185.078-.277l-.058-.026c-.06.126-.109.259-.183.375-.05.077-.134.132-.203.197-.035-.083-.095-.165-.101-.25-.035-.47.162-.887.35-1.292.355-.766.743-1.517 1.135-2.264.116-.222.292-.413.441-.617l-.06-.058c-.068.07-.128.15-.205.207-.067.051-.153.078-.23.115-.029-.089-.107-.206-.076-.262a3.8 3.8 0 0 1 .44-.65c.47-.542.975-1.052 1.564-1.47a.574.574 0 0 1 .523-.105c.785.203 1.577.378 2.366.566.085.02.166.054.246.08-.167.21-.35.39-.471.605-.15.264-.222.557-.122.869.033.102.011.19-.1.263-.533.35-.824.91-1.184 1.41-.028.039-.002.158.039.202.33.354.674.696 1.004 1.05.041.044.064.156.037.204-.306.54-.28 1.06-.043 1.634.188.454.436.645.909.556.02-.004.043.007.075.014.022.388.039.786.308 1.095.138.159.337.263.501.401.073.06.157.133.184.217.393 1.224 1.539 1.617 2.64 1.32.3-.08.585-.215.892-.332.05.205.116.425.158.65.172.909.558 1.721 1.066 2.488.532.802 1.17 1.5 2.004 1.984 1.193.692 2.131.678 3.29-.088.5-.33.812-.823 1.085-1.336.42-.786.877-1.55 1.494-2.192.334-.347.761-.607 1.164-.88.12-.082.3-.077.418-.104-.061.372-.15.699-.156 1.026-.002.183.119.378.217.55.078.136.182.135.265-.028a1.43 1.43 0 0 1 .263-.388.586.586 0 0 1 .335-.145c.323-.026.496-.203.52-.524.082-1.053.277-2.074.915-2.954.074-.102.193-.172.325-.234-.01.474-.08.927.241 1.34.057-.078.107-.133.142-.197.094-.169.208-.288.428-.266.058.006.144-.042.181-.092a3.7 3.7 0 0 0 .303-.476.326.326 0 0 0 .01-.222c-.191-.655-.118-1.313.023-1.957.064-.29.254-.555.402-.824.024-.044.123-.047.187-.069.016.063.045.126.047.19.003.151-.02.304-.005.454.007.073.058.176.116.2.048.018.137-.057.203-.098.112-.068.214-.183.333-.204.136-.025.17-.085.23-.195.182-.338.13-.678.067-1.025a4.14 4.14 0 0 1 .148-2.066.29.29 0 0 1 .062-.12c.04-.038.097-.06.146-.09.03.055.079.106.087.163.036.24.06.48.088.721l.099.014c.046-.102.094-.203.138-.306.048-.112.078-.24.255-.178.025.01.098-.05.114-.09.053-.132.076-.277.134-.406.127-.279-.035-.512-.113-.753a3.802 3.802 0 0 1-.055-2.246.252.252 0 0 1 .036-.082c.04-.054.085-.105.128-.157.045.063.112.12.13.189.039.148.052.303.073.436.13-.1.244-.174.336-.268a.278.278 0 0 0 .068-.2 17.423 17.423 0 0 0-.135-1.05c-.164-.98-.163-1.324.217-2.317.203.049.25.231.26.383.038.562.266 1.029.642 1.435.434.468.696 1.034.923 1.62.029.073.104.16.174.18.6.165 1.09.522 1.538.925.505.454.973.95 1.454 1.43.064.064.112.144.193.198.096-.46.11-.902.026-1.339-.09-.47.168-.79.629-.758.046.004.116-.05.143-.097a.83.83 0 0 1 .602-.437.9.9 0 0 1-.064.864c.314.256.358.488.12.806-.206.276-.241.57-.196.89l.066.026c.08-.216.171-.43.237-.65.073-.247.118-.507.38-.631.079-.037.193-.078.258-.048.247.115.491.047.74.04.323-.01.609.21.736.547-.24-.047-.472-.066-.633.161.097.346.042.446-.268.662-.16.112-.283.274-.387.437.236-.068.472-.139.709-.203.385-.105.79.059.94.483.035.1.147.183.239.253zm-17.56 4.554c-.158-.067-.297-.271-.467-.092 0 .258.03.498-.008.726-.043.252-.188.277-.403.144a4.104 4.104 0 0 0-.584-.282c-.06-.026-.14-.004-.25-.004.22.356.172.685.05 1.014-.016.042-.023.097-.054.122-.09.074-.184.174-.287.187-.05.006-.151-.152-.176-.25-.126-.485-.332-.605-.649-.587-.193.01-.393.1-.568.194-.298.163-.293.178-.444-.133a8.58 8.58 0 0 1-.685-1.991l.046-.049c.073.06.153.112.219.178.33.332.839.412 1.24.19.132-.073.196-.491.097-.697-.063-.133-.144-.258-.236-.418.565-.077.774.332 1.025.665.196-.104.407-.18.564-.316.075-.065.071-.254.054-.38-.016-.112-.1-.215-.156-.33.252-.044.412.13.546.27.312.326.62.647.996.909.264.184.363.494.334.825-.005.054-.034.106-.052.159-.05-.018-.102-.033-.152-.054zm-19.53-7.782c-.578.59-1.048 1.26-1.463 1.971-.595 1.023-1.144 2.07-1.552 3.181-.303.825-.568 1.664-.85 2.496-.254.75-.541 1.484-1.028 2.123-.54.71-1.252 1.1-2.138 1.129-.48.016-.97.08-1.44-.104-.516-.202-.914-.52-1.068-1.075-.037-.132-.027-.277-.044-.471.994.812 2.288.849 2.588.12-1.798.377-3.041-.567-3.432-1.794-.465-1.46.084-2.68 1.037-3.238-.206.82-.15 1.608.302 2.312.374.583.93.974 1.608 1.133 1.308.308 2.638-.462 3.154-1.591-.253.2-.477.393-.718.561-.73.51-1.512.536-2.322.214-.566-.224-1.029-.57-1.257-1.154-.302-.773.014-1.486.547-1.978.03-.028.078-.038.12-.057.17.761.808 1.122 1.52 1.195a2.666 2.666 0 0 0 2.027-.605c.191-.157.356-.381.455-.609.31-.708.6-1.427.866-2.154.354-.967.788-1.89 1.375-2.74.095-.138.19-.08.292-.024.364.198.725.402 1.092.593.198.102.407.184.645.29-.119.103-.224.182-.316.276zm-6.47 4.222c-.71.057-1.112-.488-.92-1.177.185.11.368.233.562.333.157.081.237-.02.233-.163-.009-.3.068-.54.38-.64.339-.11.635-.031.897.21.48.442.464 1.004.4 1.625-.519-.28-1.03-.23-1.551-.188zm16.903-2.043c-.384.085-.778.13-1.175.193.094.122.194.253.296.383.288.368.838.601 1.174.44.335-.161.636-.39.95-.592a.137.137 0 0 0 .053-.093c.023-.283-.407-.653-.677-.57-.211.066-.407.192-.62.24zm5.363.858l-.015.08c.138.07.27.154.415.207.266.099.552.155.729.414.023.035.09.05.14.055.328.033.643-.03.945-.156.11-.046.195-.118.065-.232-.138-.12-.267-.269-.43-.342-.446-.203-.93-.15-1.403-.135-.15.004-.298.071-.446.11zM7.583 10.462c-.131-.217-.21-.469-.294-.71-.024-.067-.006-.205.034-.224a.293.293 0 0 1 .248.02c.162.11.315.238.453.376.762.766 1.612 1.41 2.602 1.85.653.29 1.338.497 2.05.585.775.097 1.555.163 2.331.253 1.035.12 2.082.195 3.067.573.462.178.906.406 1.362.601.068.03.16.02.238.008.147-.024.296-.051.437-.1.115-.041.22-.116.355-.19a5.79 5.79 0 0 0-1.422-.772c-.943-.368-1.927-.563-2.927-.692-.886-.114-1.775-.211-2.655-.361a6.886 6.886 0 0 1-2.334-.873c-.645-.378-1.19-.85-1.6-1.472-.188-.287-.329-.599-.293-.956.008-.079.052-.191.112-.218.064-.029.188-.002.246.048.13.111.247.244.352.381.664.872 1.53 1.488 2.507 1.952.81.384 1.667.633 2.554.776 1.14.184 2.29.323 3.417.57 1.07.236 2.102.638 2.926 1.388.322.294.593.167.903.13.619-.072.869.148 1.03.628.182.541.146 1.084.016 1.624-.073.301-.052.568.191.78.05.043.155.072.214.051.736-.268 1.406-.18 2.008.341.033.03.118.035.16.014.45-.225.901-.448 1.34-.696.085-.048.116-.194.169-.297.236-.458.51-.911 1.055-1.002.391-.065.806-.017 1.208.014.596.047 1.19.203 1.781-.027.409-.159.688-.537.693-.97.004-.374-.006-.75.005-1.125a.932.932 0 0 1 .087-.367c.031-.065.137-.138.201-.132.063.006.158.103.168.17.055.378.122.76.122 1.14 0 .35-.055.705-.127 1.049-.141.67-.577 1.006-1.27 1-.568-.005-1.137-.062-1.702-.032-.516.026-.92.261-1.013.79a.41.41 0 0 0 .036.223c.13.29.257.55.678.496.227-.03.373.189.406.431.066.48.484.863 1.005.925.126.015.251.035.39.055-.046.356-.665.482-1.273.263-.012.264-.018.517-.036.769-.006.084-.027.226-.067.235-.09.022-.224.011-.293-.044-.196-.16-.369-.347-.575-.547-.249.093-.381.324-.481.58-.14.355-.34.393-.6.106a2.891 2.891 0 0 1-.186-.226c-.053-.072-.098-.15-.147-.225-.156.197-.3.398-.467.58-.062.068-.177.129-.262.123-.058-.004-.127-.125-.155-.207-.048-.136-.068-.283-.123-.42-.23.602-.546 1.086-1.246 1.254.019-.343.366-.622.063-.954-.315.322-.499.688-.531 1.136-.063.866.237 1.647.556 2.421.33.8.697 1.585 1.012 2.391.247.632.383 1.3.343 1.983-.053.9-.453 1.712-1.519 1.948-.372.082-.728.012-1.075-.144-.616-.275-1.09-.72-1.496-1.24-.295-.379-.58-.772-.817-1.187-.169-.295-.262-.635-.367-.962-.022-.068.055-.167.087-.252.09.04.217.054.266.124.289.402.534.838.842 1.223.385.48.773.972 1.37 1.221.936.391 1.64-.375 1.674-1.154.026-.604-.19-1.15-.445-1.68-.464-.965-.963-1.913-1.404-2.887-.277-.61-.444-1.261-.418-1.945.003-.08 0-.162 0-.253-.63.108-1.208.097-1.73-.26l-.48.32.042-.214c.076-.366-.25-.905-.617-1.022-.154-.049-.36.177-.381.416-.041.468.22.792.539 1.07.254.221.54.409.817.603.244.172.257.165.39-.1.043-.086.076-.177.122-.284.14.035.291.065.437.114a.213.213 0 0 1 .115.13c.165.622.341 1.241.47 1.87.03.153-.064.372-.171.503-.385.47-.85.837-1.487.882-.154.01-.312-.05-.469-.077.22-.188.428-.342.606-.525s.225-.428.186-.675c-.009-.055-.11-.13-.172-.136a3.147 3.147 0 0 0-.577.001.681.681 0 0 0-.306.11c-.392.267-.765.562-1.165.816-.721.457-1.862.049-2.11-.58-.089-.228-.21-.444-.327-.684l-.08.071-.19.16c-.044-.08-.138-.167-.127-.236.043-.257.079-.53.198-.753.1-.19.153-.304-.038-.45-.182-.138-.343-.304-.526-.441-.184-.138-.346-.068-.502.08-.06.057-.165.068-.25.1-.01-.082-.037-.167-.025-.245.093-.585.503-.858 1.064-1.03-.668-.153-1.098-.609-1.57-1.002-.143-.12-.147-.21-.011-.35.339-.346.728-.632 1.188-.758.607-.168 1.232-.128 1.797.166.429.224.819.523 1.201.773-.082-.26-.26-.521-.465-.777-.465-.583-1.141-.747-1.808-.92-.352-.09-.72-.126-1.105-.19a.702.702 0 0 1 .513-.47c.325-.087.658-.147.987-.222.363-.082.71-.198.998-.506-.117-.077-.215-.154-.324-.211a13.829 13.829 0 0 0-3.288-1.233c-.91-.217-1.82-.44-2.72-.7-.863-.25-1.688-.606-2.425-1.13-.786-.561-1.47-1.23-1.974-2.06z"/>
    </g>
</svg>
