<svg xmlns="http://www.w3.org/2000/svg" width="24" height="24" viewBox="0 0 24 24">
    <g fill="none" fill-rule="nonzero">
        <path fill="#5D6CC5" d="M15.57 12.531c.883-.184 1.558-.748 1.759-1.937.277-1.625-.948-2.528-2.635-3.149l.596-2.196-1.338-.363-.58 2.139a54.94 54.94 0 0 0-1.073-.276l.583-2.153-1.337-.363-.597 2.195c-.29-.072-.577-.144-.855-.22l.002-.006L8.249 5.7 7.86 7.128s.994.25.973.264c.542.147.633.51.61.795l-.678 2.503c.037.01.085.024.139.047l-.142-.038-.952 3.506c-.07.164-.244.409-.623.306.013.02-.974-.264-.974-.264l-.699 1.524 1.742.473c.325.089.642.18.954.267l-.602 2.223 1.337.363.597-2.199c.365.108.72.208 1.066.301l-.594 2.188 1.338.363.603-2.217c2.286.482 4.014.342 4.783-1.716.62-1.657.025-2.633-1.17-3.286zM11.903 8.33c.756.205 3.195.61 2.768 2.185-.41 1.51-2.736.69-3.492.484l.724-2.67zm-1.89 6.96l.8-2.943c.908.247 3.823.758 3.353 2.49-.45 1.66-3.244.7-4.152.454z"/>
    </g>
</svg>
