<svg xmlns="http://www.w3.org/2000/svg" width="24" height="24" viewBox="0 0 24 24">
    <g fill="none" fill-rule="nonzero">
        <g fill="#5D6CC5">
            <path d="M11.597 3h.946c.987.065 1.968.26 2.885.627 2.27.885 4.142 2.72 5.056 4.963 1.259 2.986.718 6.628-1.382 9.113a9.086 9.086 0 0 1-5.744 3.208c-2.094.296-4.292-.151-6.084-1.274a9.018 9.018 0 0 1-3.266-3.519 8.922 8.922 0 0 1-.822-5.933c.447-2.209 1.777-4.224 3.632-5.523C8.206 3.666 9.89 3.105 11.598 3zm-.563.408c-2.761.314-5.3 2.038-6.616 4.463a8.541 8.541 0 0 0-.977 5.333c.304 2.193 1.506 4.244 3.268 5.601a8.735 8.735 0 0 0 4.702 1.818 8.72 8.72 0 0 0 5.506-1.436c1.963-1.288 3.357-3.396 3.757-5.697a8.632 8.632 0 0 0-.27-4.081 8.706 8.706 0 0 0-3.595-4.673 8.737 8.737 0 0 0-5.775-1.328z"/>
            <path d="M11.082 3.828c1.6-.17 3.257.071 4.694.803a8.244 8.244 0 0 1 4.057 4.425 8.22 8.22 0 0 1-.043 6.002c-1.17 3-4.262 5.157-7.517 5.161a8.228 8.228 0 0 1-5.332-1.747A8.195 8.195 0 0 1 4.998 7.697c1.29-2.123 3.602-3.59 6.084-3.87zm-.279 2.656a5.707 5.707 0 0 0-3.287 2.113 5.61 5.61 0 0 0-1.104 4.07 5.61 5.61 0 0 0 2.266 3.88 5.732 5.732 0 0 0 4.151 1.061c1.795-.217 3.445-1.35 4.282-2.939.628-1.133.8-2.48.57-3.746a5.67 5.67 0 0 0-2.604-3.74 5.794 5.794 0 0 0-4.274-.699z"/>
            <path d="M11.336 6.947c1.57-.263 3.252.251 4.381 1.376a5.004 5.004 0 0 1 1.558 3.694 5.003 5.003 0 0 1-1.565 3.668c-1.086 1.078-2.682 1.593-4.196 1.394a5.124 5.124 0 0 1-4.25-6.604c.546-1.821 2.192-3.244 4.072-3.528zm.313.312c0 .448.002.896 0 1.344h.672c.001-.46.002-.919 0-1.378-.224.007-.448.018-.672.034zm1.614 1.365c.59.08 1.223.17 1.693.567.718.644.625 1.995-.253 2.462.526.123 1.047.473 1.177 1.025.168.724.034 1.593-.548 2.103-.577.474-1.357.536-2.07.604.003.419.001.838 0 1.258 1.501-.367 2.796-1.483 3.347-2.927a4.757 4.757 0 0 0-.339-4.126 4.894 4.894 0 0 0-3.004-2.232c-.003.422-.003.843-.003 1.266zm-4.478-.018c.65.032 1.3.024 1.95.024 0-.396.002-.791-.001-1.187-.728.236-1.377.66-1.95 1.163zm-.078.052c-.172.212-.492.612-.681.967-.765 1.3-.851 2.97-.213 4.338.55 1.227 1.642 2.182 2.92 2.593.003-.395.002-.79.002-1.184-.653-.006-1.307.017-1.959-.018.008-.363.093-.718.217-1.06.32-.007.653.049.961-.056.18-.151.13-.402.14-.61-.01-1.185.004-2.37-.007-3.554.012-.191-.108-.398-.307-.436-.328-.066-.665-.04-.996-.042a6.161 6.161 0 0 1-.047-.806s.004-.085-.025-.14l-.005.008zm2.97 1.019v1.747c.584-.01 1.232.054 1.743-.285.424-.278.397-.98-.041-1.23-.512-.301-1.135-.216-1.702-.232zm0 2.687v1.938c.721-.057 1.53.063 2.157-.371.448-.298.394-1.034-.068-1.292-.628-.375-1.391-.256-2.09-.275zm-.026 3.034l-.002 1.345c.234.016.467.025.7.032.002-.459.001-.918.001-1.377h-.7z"/>
        </g>
    </g>
</svg>
