<svg xmlns="http://www.w3.org/2000/svg" width="24" height="24" viewBox="0 0 24 24">
    <g fill="none" fill-rule="evenodd">
        <g fill="#5D6CC5" fill-rule="nonzero">
            <path d="M23.934 11.98c0 6.593-5.345 11.937-11.937 11.937C5.404 23.917.06 18.573.06 11.98.06 5.388 5.404.044 11.997.044c6.592 0 11.937 5.344 11.937 11.936"/>
            <path d="M21.4 11.98a9.403 9.403 0 1 1-18.806 0 9.403 9.403 0 0 1 18.805 0"/>
        </g>
        <g fill="#FFF">
            <path d="M7.193 11.047l5.24-2.232 5.077 2.29L12.424 3l-5.23 8.047zm.017 2.476l5.23 3.063 5.336-3.063-5.287 7.436-5.28-7.436z"/>
            <path d="M12.456 9.907L7 12.228l5.456 3.062 5.304-2.997z"/>
        </g>
    </g>
</svg>
