<svg xmlns="http://www.w3.org/2000/svg" width="24" height="24" viewBox="0 0 24 24">
    <g fill="none" fill-rule="evenodd">
        <g fill="#5D6CC5" fill-rule="nonzero">
            <path d="M23.934 11.98c0 6.593-5.345 11.937-11.937 11.937C5.404 23.917.06 18.573.06 11.98.06 5.388 5.404.044 11.997.044c6.592 0 11.937 5.344 11.937 11.936"/>
            <path d="M21.4 11.98a9.403 9.403 0 1 1-18.806 0 9.403 9.403 0 0 1 18.805 0"/>
        </g>
        <g fill="#FFF">
            <path fill-rule="nonzero" d="M11.995 15.296l4.983-2.962-4.983-8.316-4.984 8.316z"/>
            <path d="M11.995 20.346l4.986-7.062-4.986 2.96-4.984-2.96z"/>
        </g>
    </g>
</svg>
