<svg xmlns="http://www.w3.org/2000/svg" width="24" height="24" viewBox="0 0 24 24">
    <g fill="none" fill-rule="nonzero">
        <g fill="#5D6CC5">
            <path d="M23.934 11.98c0 6.593-5.345 11.937-11.937 11.937C5.404 23.917.06 18.573.06 11.98.06 5.388 5.404.044 11.997.044c6.592 0 11.937 5.344 11.937 11.936"/>
            <path d="M21.4 11.98a9.403 9.403 0 1 1-18.806 0 9.403 9.403 0 0 1 18.805 0"/>
        </g>
        <path fill="#FFF" d="M14.242 10.2a3.096 3.096 0 0 0 .914-2.213c0-.733-.257-1.443-.727-2.006l1.819-1.82-.406-.393-1.819 1.82a3.1 3.1 0 0 0-1.994-.728 3.13 3.13 0 0 0-.29 6.245v2.306a3.039 3.039 0 0 0-1.923.905 3.135 3.135 0 0 0 0 4.426 3.096 3.096 0 0 0 2.213.914 3.112 3.112 0 0 0 2.213-.914 3.096 3.096 0 0 0 .914-2.213c0-.84-.322-1.62-.914-2.213a3.095 3.095 0 0 0-1.923-.905v-2.306a3.033 3.033 0 0 0 1.923-.905m-.406 4.52c.478.486.749 1.122.749 1.806a2.545 2.545 0 0 1-.749 1.808 2.51 2.51 0 0 1-1.807.748 2.545 2.545 0 0 1-1.807-.748 2.566 2.566 0 0 1-.75-1.808 2.545 2.545 0 0 1 .75-1.807 2.51 2.51 0 0 1 1.807-.749c.686.003 1.33.262 1.807.75m-1.807-4.167a2.545 2.545 0 0 1-1.807-.749 2.566 2.566 0 0 1-.75-1.807c0-.678.27-1.329.75-1.807a2.51 2.51 0 0 1 1.807-.75 2.545 2.545 0 0 1 1.807.75 2.51 2.51 0 0 1 .749 1.807 2.545 2.545 0 0 1-.749 1.807c-.478.49-1.12.749-1.807.749"/>
    </g>
</svg>
