<svg xmlns="http://www.w3.org/2000/svg" width="24" height="24" viewBox="0 0 24 24">
    <g fill="none" fill-rule="nonzero">
        <path fill="#5D6CC5" d="M23.935 12c0 6.593-5.344 11.937-11.937 11.937C5.406 23.937.061 18.593.061 12 .061 5.408 5.406.064 11.998.064 18.591.064 23.935 5.408 23.935 12"/>
        <path fill="#5D6CC5" d="M21.4 12a9.403 9.403 0 1 1-18.804 0A9.403 9.403 0 0 1 21.4 12"/>
        <path fill="#FFF" d="M11.3 15.189l.776-2.92 1.836-.67.456-1.716-.015-.042-1.807.66 1.301-4.902h-3.692l-1.702 6.397-1.422.52-.47 1.768 1.421-.519-1.003 3.77h9.826l.63-2.346H11.3"/>
    </g>
</svg>
