<svg xmlns="http://www.w3.org/2000/svg" width="24" height="24" viewBox="0 0 24 24">
    <g fill="none" fill-rule="nonzero">
        <g fill="#5D6CC5">
            <path d="M23.934 11.98c0 6.593-5.345 11.937-11.937 11.937C5.404 23.917.06 18.573.06 11.98.06 5.388 5.404.044 11.997.044c6.592 0 11.937 5.344 11.937 11.936"/>
            <path d="M21.4 11.98a9.403 9.403 0 1 1-18.806 0 9.403 9.403 0 0 1 18.805 0"/>
        </g>
        <path fill="#FFF" d="M9.65 13.6a2.772 2.772 0 0 0-2.77 2.773 2.772 2.772 0 0 0 2.77 2.773c1.53 0 2.77-1.241 2.77-2.773A2.772 2.772 0 0 0 9.65 13.6zm0 4.707a1.932 1.932 0 1 1 1.932-1.933 1.935 1.935 0 0 1-1.932 1.933zm5.917-10.621a2.772 2.772 0 0 0-2.77 2.772 2.772 2.772 0 0 0 2.77 2.773c1.53 0 2.77-1.241 2.77-2.773a2.772 2.772 0 0 0-2.77-2.773zm0 4.706a1.932 1.932 0 1 1 1.931-1.933 1.936 1.936 0 0 1-1.931 1.933zM9.65 7.685a2.775 2.775 0 0 0-1.08 5.33 2.78 2.78 0 0 0 3.371-.995 2.768 2.768 0 0 0-.307-3.496h.786v-.839H9.65zm1.932 2.773a1.932 1.932 0 1 1-3.867.001 1.932 1.932 0 0 1 3.868 0h-.001z"/>
    </g>
</svg>
