<svg xmlns="http://www.w3.org/2000/svg" width="24" height="24" viewBox="0 0 24 24">
    <g fill="none" fill-rule="nonzero">
        <path fill="#5D6CC5" d="M20.996 11.966a.155.155 0 0 1-.085.173l-.057.027-1.73 1.734.67 2.508a.154.154 0 0 1-.108.19l-2.407.645-.664 2.483a.154.154 0 0 1-.187.11l-2.543-.683-1.798 1.802a.153.153 0 0 1-.218 0l-1.776-1.781-2.462.661a.153.153 0 0 1-.187-.108l-.665-2.483-2.406-.646a.154.154 0 0 1-.109-.19l.65-2.427-1.868-1.873a.155.155 0 0 1 0-.217l1.815-1.822-.648-2.427a.155.155 0 0 1 .11-.19l2.515-.676.656-2.452a.155.155 0 0 1 .189-.11l2.38.64 1.806-1.81a.157.157 0 0 1 .218 0l1.828 1.831 2.461-.661a.154.154 0 0 1 .188.109l.018.065c.004.01.006.02.008.03l.63 2.358 2.517.676c.082.023.13.107.109.189l-.67 2.508 1.692 1.697a.154.154 0 0 1 .128.119zm-1.964 1.59l1.01-1.011-1.138.53.128.481zm.368 2.57l-.527-1.974-1.048 1.05 1.575.924zm-1.657-.615l-.371 1.389 1.878-.505-1.507-.884zm-1.349 3.852l.543-2.027-1.481.397.938 1.63zm-1.878-.844l-.38.382 1.492.4-1.112-.782zm-2.384 1.955l1.41-1.414-1.41-.379v1.792zm-.307-1.765l-1.389.373 1.388 1.392v-1.765zm-3.892.726l1.91-.512-1.024-1.026-.886 1.538zm-.81-2.1l.423 1.586.128-1.437-.551-.149zm-2.318-.94l1.883.505-.375-1.4-1.508.894zm1.356-1.163l-.996-1-.506 1.89 1.502-.89zm-2.61-3.053l1.454 1.458.39-1.458H3.55zm1.56-1.181l-.157-.585-1.226 1.229 1.383-.644zm-.504-3.076l.506 1.895 1.012-1.015-1.519-.88zm1.753.645l.387-1.446-1.987.534 1.59.921.01-.01zm1.329-3.78l-.507 1.897 1.385-.372-.878-1.525zm1.756.687l.367-.368-1.437-.386 1.07.754zm2.38-1.949l-1.418 1.421 1.418.381V3.525zm.307 1.83l1.44-.387-1.44-1.443v1.83zm4.047-.768l-2.013.54 1.079 1.082.934-1.622zm.227 1.971l.471.126-.362-1.355-.109 1.229zm2.888 1.095l-1.982-.532.383 1.434 1.598-.903v.001zM17.85 8.821l1.074 1.076.53-1.982-1.604.906zm2.582 3.023l-1.348-1.35-.362 1.35h1.71zm-1.775.308l.165.619 1.328-.619H18.657zm-.232.804l.114-.052-.05-.188-.064.24zm-.104.389l-.338 1.26.798-.798-.16-.602-.3.14zm-.93 2.293l-1.713 1.716 1.35-.363.362-1.353zm-2.151 1.72l2.31-2.316.407-1.528-3.887 1.812 1.17 2.031zm-.066.502l-.436.437 1.158.815-.722-1.252zm-.818.168l.126.089.167-.168-.293.08zm-.388.104l-1.344.361 1.17.315.467-.47-.292-.206h-.001zm-2.533.361l-2.165-.582.915.918 1.25-.336zm-3.417-1.4l-.015.16.237.063-.223-.224zm-.285-.286L6.707 15.78l.324 1.213.67.18.032-.364v-.002zm-1.62-2.06l-.543-2.03-.314 1.171.857.86zm-.77-2.876l-.152-.57-1.225.57h1.378zm.349-.805l-.218.102.096.357.122-.459zm.104-.388l.405-1.516-.996.999.188.705.403-.188zm.999-2.548l1.394-1.397-1.1.295-.294 1.103V8.13zm2.013-2.018l.417-.417-1.107-.78.69 1.197zm.87-.099l-.197-.138-.263.262.46-.124zm.388-.104l1.37-.367-1.28-.344-.455.455.365.256zm2.557-.367l2.078.558-.878-.88-1.2.322zm3.433 1.48l.021-.234-.347-.093.326.327zm.284.285l.961.964-.332-1.243-.59-.159-.04.438zm1.555 1.995l.594 2.223.344-1.283-.938-.939zm-4.33 5.146l.35.61 4.147-1.932.26-.973H15.91l-.123 1.375a.154.154 0 0 1-.285.066l-.748-1.268-1.19 2.122zm-.588 1.048l.659-.308-.247-.427-.412.735zm-2.615-.278l3.665 2.58.963-.259-1.2-2.082-1.116.52a.154.154 0 0 1-.2-.216l.7-1.247-2.422.027-.39.676v.001zm-.154.268L9.03 17.529l3 .805 1.61-.432-3.432-2.416zm.186-.941l-.972.011.687.484.285-.495zm-1.942-2.366l-.4 4.514.701.701 1.202-2.087-1.101-.774a.155.155 0 0 1 .087-.28l1.488-.017-1.215-2.057h-.762zm-.308 0h-2.4l.803 3.004 1.222 1.225.375-4.229zm.887-.308l-.48-.812-.071.812h.55zm1.087-2.867l-4.062 1.893-.26.974h2.375l.117-1.316a.154.154 0 0 1 .285-.065l.752 1.273L10.5 9.668l-.382-.664zm-.154-.267L8.74 6.615 6.636 8.726 6.16 10.51l3.804-1.772zm3.755.121l-3.712-2.614-.972.262 1.209 2.1 1.2-.56a.154.154 0 0 1 .198.217l-.702 1.25 2.417-.026.362-.629zm.155-.268l1.193-2.073-3.038-.816-1.635.44 3.48 2.449zm-.16.892l.878-.009-.62-.437-.257.447zm1.888 2.671h-.593l.515.871.078-.871zm-4.926-2.798l.465-.827-.743.346.278.482zm2.672 4.85l1.225-2.185-1.308-2.215-.004-.009-2.495.028-1.26 2.246 1.278 2.162 2.549-.029.015.003zm2.956-6.497l-.366 4.137h2.319l-.797-2.978-1.156-1.16zm-.675 4.137l.392-4.422-.71-.712-1.185 2.056 1.035.728a.155.155 0 0 1-.087.281l-1.46.016 1.214 2.053h.801zm.475-5.368l.12-1.352-.69 1.198.57.154zM7.976 17.565l-.124 1.393.712-1.235-.588-.158z"/>
    </g>
</svg>
