<svg xmlns="http://www.w3.org/2000/svg" width="24" height="24" viewBox="0 0 24 24">
    <g fill="none" fill-rule="nonzero">
        <g fill="#5D6CC5">
            <path d="M23.934 11.98c0 6.593-5.345 11.937-11.937 11.937C5.404 23.917.06 18.573.06 11.98.06 5.388 5.404.044 11.997.044c6.592 0 11.937 5.344 11.937 11.936"/>
            <path d="M21.4 11.98a9.403 9.403 0 1 1-18.806 0 9.403 9.403 0 0 1 18.805 0"/>
        </g>
        <path fill="#FFF" d="M18.924 15.128L12.627 3.87a.624.624 0 0 0-1.098 0L5.234 15.128a.622.622 0 0 0 .224.84l6.304 3.758a.664.664 0 0 0 .655 0l6.295-3.75a.635.635 0 0 0 .212-.848m-4.76-4.537l-.153-.13-.01-.01c-.049-.04-.1-.076-.154-.11l-.01-.01c-.05-.033-.103-.069-.163-.102-.01 0-.01-.01-.017-.01-.05-.034-.11-.06-.164-.086-.01 0-.01-.01-.017-.01-.05-.026-.11-.05-.17-.077-.01 0-.01-.01-.017-.01-.051-.016-.104-.043-.154-.06a2.639 2.639 0 0 0-.429-.12c-.11.214-.267.404-.438.565a2.438 2.438 0 0 1 1.15.386c.007 0 .013.004.017.01.034.016.06.043.094.07.016.008.031.02.044.033a.55.55 0 0 1 .086.07c.017.016.034.026.05.042.027.027.051.044.078.07l.05.05.07.07.05.05a.599.599 0 0 0 .06.07c.018.02.035.043.051.06l.051.077c.017.026.034.043.043.07l.05.076c.018.027.027.05.044.07.017.026.027.05.044.076.016.027.026.05.043.077.01.027.026.05.034.077.016.034.026.07.043.094.072.175.122.359.147.547l.077.3c.033.13.344 1.223 1.064 1.593.825.427 1.916.96 2.344 1.164l-5.656 3.373v-2.31c0-.368.729-.797 1.063-.941l.017-.01c.07-.033.138-.07.207-.11l.027-.017c.146-.086.284-.187.411-.3.01-.01.027-.016.034-.033.017-.01.027-.027.043-.034.044-.033.077-.077.12-.11l.018-.017a.925.925 0 0 0 .12-.137c.01-.017.026-.026.034-.043.033-.034.06-.077.094-.12.01-.01.016-.026.026-.034l.104-.153c0-.01.01-.01.01-.017.043-.07.086-.146.13-.213a3.32 3.32 0 0 1-.405-.634c-.044.127-.099.25-.164.367-.026.05-.06.103-.087.154-.01.01-.01.017-.016.017a1.298 1.298 0 0 1-.087.12c-.01.01-.017.026-.027.033a.6.6 0 0 1-.093.11c-.01.01-.01.017-.017.017a2.4 2.4 0 0 1-.74.564l-.05.027c-.147.06-1.408.633-1.408 1.497v2.31l-5.669-3.364c.369-.223 1.435-.856 2.311-1.13.344-.11 1.074.35 1.485.684l.027.027c.053.053.11.102.17.146l.018.017c.13.103.267.206.42.283l.104.05c.007 0 .013.004.017.01a3.255 3.255 0 0 0 .335.153c.01 0 .017.01.033.01.147.05.292.094.439.13.11-.214.274-.404.447-.564a2.467 2.467 0 0 1-.705-.154c-.01-.01-.027-.01-.034-.017a.358.358 0 0 1-.077-.033c-.01-.01-.026-.01-.033-.017-.027-.01-.051-.026-.07-.034a2.456 2.456 0 0 1-.472-.3l-.224-.206a4.238 4.238 0 0 0-.67-.48c-.558-.317-1.03-.42-1.39-.307-.747.24-1.599.693-2.114.993l5.66-10.135v4.444c0 .153-.232.564-1.014.916l-.05.027c-.078.033-.148.077-.225.12l-.016.01c-.148.088-.29.189-.422.3-.083.067-.16.142-.23.222l-.01.01a1.763 1.763 0 0 0-.207.24l-.01.01c-.034.043-.06.086-.094.13 0 .009-.01.009-.01.016-.026.043-.05.077-.077.12 0 .01-.01.01-.01.017l-.076.13c-.01.009-.01.016-.017.033-.027.043-.043.086-.06.12a.024.024 0 0 1-.01.017c-.017.043-.034.076-.05.12a.32.32 0 0 0-.017.043l-.05.13a.32.32 0 0 0-.018.043.486.486 0 0 1-.033.093c-.01.017-.01.034-.017.05-.01.044-.027.087-.034.12-.01.017-.01.044-.017.06-.01.027-.01.06-.017.087-.01.026-.01.05-.016.077-.01.033-.01.07-.017.103 0 .026-.01.043-.01.07 0 .033-.01.06-.01.093a.31.31 0 0 1-.01.094v.13c0 .154.011.31.035.462.223.05.454.147.705.267a2.562 2.562 0 0 1-.11-.694v-.043a1.011 1.011 0 0 1 .009-.17v-.044c0-.05.01-.093.017-.146v-.017c.01-.05.016-.103.026-.163 0-.017.01-.026.01-.043.01-.043.026-.086.033-.13 0-.01.01-.016.01-.026l.05-.154c.01-.01.01-.026.017-.033.017-.043.034-.087.05-.12.01-.01.01-.017.018-.034.026-.05.043-.093.077-.137a.161.161 0 0 0 .017-.026c.026-.043.043-.077.07-.12a1.46 1.46 0 0 1 .12-.166l.094-.12a.161.161 0 0 0 .017-.026c.155-.17.33-.32.524-.446l.268-.13c.146-.06 1.4-.65 1.4-1.516V4.734l5.713 10.222c-.508-.248-1.409-.694-2.104-1.054-.405-.206-.67-.933-.746-1.2l-.078-.307c0-.163-.043-.326-.093-.487a3.155 3.155 0 0 0-.898-1.317"/>
    </g>
</svg>
