<svg xmlns="http://www.w3.org/2000/svg" width="24" height="24" viewBox="0 0 24 24">
    <g fill="none" fill-rule="nonzero">
        <g fill="#5D6CC5">
            <path d="M23.934 11.98c0 6.593-5.345 11.937-11.937 11.937C5.404 23.917.06 18.573.06 11.98.06 5.388 5.404.044 11.997.044c6.592 0 11.937 5.344 11.937 11.936"/>
            <path d="M21.4 11.98a9.403 9.403 0 1 1-18.806 0 9.403 9.403 0 0 1 18.805 0"/>
        </g>
        <path fill="#FFF" d="M9.638 11.296a8.009 8.009 0 0 0-1.456.125C8.577 7.767 11.626 5 15.255 5 17.477 5 19 6.087 19 8.338c0 2.25-1.828 3.337-4.494 3.337-1.968 0-2.9-.379-4.868-.379m-.144 1.333C6.828 12.629 5 13.716 5 15.967c0 2.25 1.523 3.337 3.745 3.337 3.63 0 6.678-2.766 7.073-6.42-.48.085-.968.127-1.456.124-1.968 0-2.9-.38-4.868-.38"/>
    </g>
</svg>
