<svg xmlns="http://www.w3.org/2000/svg" width="24" height="24" viewBox="0 0 24 24">
    <g fill="none" fill-rule="evenodd">
        <g fill="#5D6CC5" fill-rule="nonzero">
            <path d="M23.934 11.98c0 6.593-5.345 11.937-11.937 11.937C5.404 23.917.06 18.573.06 11.98.06 5.388 5.404.044 11.997.044c6.592 0 11.937 5.344 11.937 11.936"/>
            <path d="M21.4 11.98a9.403 9.403 0 1 1-18.806 0 9.403 9.403 0 0 1 18.805 0"/>
        </g>
        <g fill="#FFF">
            <path fill-opacity=".304" d="M6 5.025l8.966 4.306 2.295-1.025L8.332 4z"/>
            <path fill-opacity=".646" fill-rule="nonzero" d="M14.966 9.321l2.295-1.025v2.292l-2.295 1.025V9.321zm0 10.627v-7.15l2.295-1.036v7.161l-2.295 1.025z"/>
            <path d="M6 5.027v2.318l6.206 2.99L6 13.381v2.285l8.966 4.299v-2.3l-6.09-2.936 6.09-3.105V9.333z"/>
        </g>
    </g>
</svg>
