<svg xmlns="http://www.w3.org/2000/svg" width="24" height="24" viewBox="0 0 24 24">
    <g fill="none" fill-rule="nonzero">
        <path fill="#5D6CC5" d="M11.692 3h.54c.338.022.677.042 1.013.09a8.872 8.872 0 0 1 3.272 1.136c-.23.183-.477.344-.713.52-1.595 1.141-3.187 2.29-4.785 3.429-.13-.107-.242-.233-.364-.348-.365-.349-.72-.708-1.087-1.053-.134.048-.257.122-.382.19A5.88 5.88 0 0 0 7.124 8.91a77.994 77.994 0 0 1-1.956-2.599c-.02-.03-.038-.06-.056-.09a9.004 9.004 0 0 1 5.818-3.154c.253-.035.509-.041.762-.068zm4.373 3.365c.565-.425 1.13-.85 1.708-1.257a8.974 8.974 0 0 1 2.857 9.442 8.88 8.88 0 0 1-.8 1.877c-.053-.045-.09-.104-.132-.159L16.43 11.95c-.212-.283-.43-.56-.638-.846.477-.512.974-1.007 1.453-1.518a5.808 5.808 0 0 0-1.403-1.893 6.79 6.79 0 0 0-.749-.572c.316-.262.647-.505.972-.756zM3.632 8.702c.162-.4.342-.796.567-1.166.317.4.62.81.931 1.215l2.96 3.879c.065.085.134.167.19.258-.498.52-1.01 1.028-1.505 1.55.12.282.281.545.45.8.257.378.557.724.895 1.031.243.227.514.42.787.61-.238.2-.489.383-.734.573-.437.335-.877.664-1.321.989-.21.149-.411.31-.628.45a9.034 9.034 0 0 1-2.904-4.528A9.495 9.495 0 0 1 3 12.225v-.45l.031-.468a8.944 8.944 0 0 1 .6-2.605zm12.653 7.166c.223-.24.414-.508.6-.778.2.247.392.502.587.755.482.634.96 1.272 1.422 1.921-.131.184-.295.344-.45.508a9.023 9.023 0 0 1-4.834 2.58c-.432.082-.872.117-1.31.146h-.652c-.194-.024-.389-.029-.582-.05a8.868 8.868 0 0 1-3.579-1.174c.373-.284.751-.561 1.126-.843 1.43-1.067 2.859-2.134 4.287-3.202.243.223.472.461.71.69.28.266.548.546.832.807.7-.32 1.327-.792 1.843-1.36z"/>
    </g>
</svg>
