<svg xmlns="http://www.w3.org/2000/svg" xmlns:xlink="http://www.w3.org/1999/xlink" width="16" height="20" viewBox="0 0 16 20">
    <defs>
        <path id="a" d="M17.707 15.293a.999.999 0 0 1 .241 1.023l-1 3A.999.999 0 0 1 16 20H4a1 1 0 0 1-.949-.684l-1-3a.999.999 0 0 1 .242-1.023C2.427 15.158 5.635 12 10 12c4.364 0 7.572 3.158 7.707 3.293zM15.28 18l.562-1.687c-.92-.752-3.155-2.313-5.84-2.313-2.704 0-4.928 1.558-5.844 2.31L4.72 18h10.56zM10 2c1.654 0 3 1.346 3 3s-1.346 3-3 3-3-1.346-3-3 1.346-3 3-3zm0 8c2.757 0 5-2.243 5-5s-2.243-5-5-5-5 2.243-5 5 2.243 5 5 5"/>
    </defs>
    <g fill="#31373D" fill-rule="evenodd" transform="translate(-2)">
        <mask id="b" fill="#31373D">
            <use xlink:href="#a"/>
        </mask>
        <use fill="#31373D" xlink:href="#a"/>
        <g fill="#31373D" mask="url(#b)">
            <path d="M0 0h21v21H0z"/>
        </g>
    </g>
</svg>
